<svg preserveAspectRatio="none" width="100%" height="100%" overflow="visible" style="display: block;" viewBox="0 0 102 28" fill="none" xmlns="http://www.w3.org/2000/svg">
<g id="Group 18318">
<g id="Group 18316">
<path id="Vector" d="M102 15.1237C101.871 15.5484 101.755 15.9616 101.611 16.3651C101.337 17.1353 100.985 17.8613 100.353 18.4139C99.4858 19.1716 98.0304 19.2371 97.2092 18.5396C96.6982 18.1056 96.5193 17.5004 96.4186 16.8688C96.2572 15.856 96.3397 14.84 96.3868 13.8236C96.4291 12.911 96.4415 11.9971 96.4632 11.0836C96.4652 10.9984 96.4429 10.9119 96.4264 10.8271C96.2514 9.92947 95.6797 9.58134 94.8202 9.89478C94.51 10.0079 94.217 10.2015 93.9572 10.4096C93.7208 10.5989 93.5282 10.8482 93.3371 11.0877C92.9142 11.6178 92.6987 12.1943 92.7164 12.9078C92.7625 14.7681 92.7269 16.6304 92.7379 18.4918C92.7393 18.7391 92.6654 18.7963 92.4307 18.7893C91.8633 18.7723 91.295 18.7787 90.7272 18.7869C90.5615 18.7893 90.5056 18.7348 90.5091 18.5696C90.5178 18.148 90.512 17.7262 90.512 17.2491C89.9205 17.9488 89.2495 18.4525 88.4327 18.714C86.799 19.2372 85.2166 19.1544 83.7483 18.1872C83.1629 17.8016 82.7546 17.2513 82.4536 16.6592C82.177 17.0733 81.9253 17.5188 81.6083 17.9115C80.8184 18.8897 79.534 19.2554 78.348 18.8818C77.6951 18.6762 77.2971 18.2181 77.0629 17.5954C77.0396 17.5334 77.0194 17.4702 77.0004 17.4154C76.7578 17.7152 76.5462 18.0324 76.2804 18.2946C75.4971 19.0671 74.5554 19.1942 73.5475 18.8521C72.8508 18.6156 72.5422 18.0345 72.3799 17.3591C72.3714 17.3236 72.3671 17.287 72.3548 17.216C72.2091 17.4082 72.0884 17.5801 71.9549 17.7414C71.3654 18.4533 70.6513 18.9636 69.6976 19.0128C68.4494 19.0773 67.56 18.494 66.9664 17.42C66.9245 17.3443 66.8849 17.2673 66.8464 17.1898C66.812 17.1206 66.7806 17.0498 66.7627 17.0115C66.4517 17.4108 66.1719 17.8471 65.8172 18.2102C64.9831 19.0638 63.4699 19.2832 62.4152 18.7346C61.6967 18.3609 61.3901 17.6909 61.3618 16.945C61.3141 15.6868 61.3438 14.4244 61.375 13.1647C61.4059 11.9192 61.4903 10.6752 61.527 9.42985C61.5385 9.03908 61.5048 8.63992 61.4341 8.2552C61.2748 7.38835 60.7262 7.06608 59.8776 7.31089C59.1727 7.51428 58.677 8.00777 58.1973 8.52742C58.0257 8.7133 57.9643 8.90786 57.965 9.16076C57.973 12.2606 57.9702 15.3604 57.9701 18.4603C57.9701 18.7836 57.9699 18.7837 57.6484 18.7837C57.1041 18.7838 56.5599 18.7838 56.0156 18.7838C55.6407 18.7838 55.6407 18.7838 55.6407 18.4197C55.6407 15.4776 55.6477 12.5355 55.6355 9.59341C55.6327 8.90144 55.5657 8.20969 55.5257 7.51797C55.5221 7.45601 55.5014 7.39481 55.4866 7.33374C55.2739 6.45438 54.7774 6.18384 53.9257 6.49833C53.2822 6.73598 52.8263 7.21559 52.3873 7.71786C52.212 7.91837 52.1392 8.12522 52.1405 8.39751C52.1514 10.8032 52.1483 13.2089 52.1458 15.6147C52.1451 16.2862 52.1138 16.9562 51.872 17.5939C51.5172 18.5298 50.7962 18.9564 49.8329 19.0074C49.513 19.0243 49.1838 19.0062 48.8688 18.9494C47.921 18.7787 47.3859 18.1527 47.1049 17.2717C47.0564 17.1196 47.0246 16.962 46.9851 16.807C47.0038 16.7956 47.0224 16.7841 47.0411 16.7727C47.1126 16.826 47.1831 16.8808 47.256 16.9322C47.5315 17.1267 47.7883 17.3601 48.0875 17.5064C48.9448 17.9256 49.7317 17.4479 49.7939 16.4967C49.7985 16.4259 49.7984 16.3548 49.7984 16.2838C49.7986 12.6161 49.7986 8.9483 49.7986 5.28054C49.7986 5.23349 49.7986 5.18643 49.7986 5.11692C49.2082 5.25075 48.6792 5.49016 48.1865 5.81326C46.1717 7.13446 45.4484 9.94628 46.5797 12.0711C46.9515 12.7695 47.4946 13.2869 48.235 13.586C48.3003 13.6124 48.3632 13.6447 48.4261 13.6765C48.4387 13.6828 48.4462 13.6993 48.4697 13.7275C48.4286 13.7571 48.3927 13.7996 48.3482 13.8127C47.4601 14.0736 46.5625 14.1529 45.6743 13.844C44.5302 13.4461 43.9122 12.5801 43.6984 11.4272C43.3593 9.59845 43.9276 7.99168 45.057 6.58272C46.5572 4.71107 48.5542 3.91958 50.9323 4.06765C51.6606 4.113 52.0614 4.52542 52.1155 5.26189C52.1427 5.631 52.1371 6.0025 52.1471 6.3729C52.1487 6.43165 52.154 6.49031 52.1555 6.51509C52.6252 6.08742 53.0798 5.63083 53.5792 5.23024C54.1238 4.79352 54.7566 4.5391 55.471 4.52629C56.5896 4.50622 57.3267 5.02521 57.6471 6.10723C57.7751 6.53942 57.8379 6.99091 57.9316 7.43968C58.1284 7.22781 58.3233 7.00344 58.5334 6.79425C59.2017 6.12883 59.9357 5.55626 60.9008 5.41714C61.7787 5.29059 62.6124 5.40487 63.2273 6.13735C63.6481 6.63876 63.825 7.25723 63.8436 7.89116C63.8745 8.94559 63.8603 10.0027 63.8257 11.0574C63.7725 12.6808 63.6766 14.3029 63.6215 15.9262C63.6108 16.2426 63.6628 16.5752 63.7571 16.8781C63.96 17.5298 64.6139 17.7302 65.1776 17.3405C65.5816 17.0613 65.7793 16.6265 66.0281 16.2246C66.3658 15.679 66.2905 15.1035 66.258 14.5118C66.1761 13.0188 66.3014 11.5477 66.9317 10.1658C67.4196 9.09593 68.1773 8.31577 69.3782 8.0696C70.4009 7.85994 71.3185 8.06435 72.0907 8.79373C72.1905 8.88796 72.2713 8.90339 72.4023 8.85826C72.9745 8.66118 73.5515 8.47828 74.127 8.29101C74.4016 8.20167 74.4177 8.21353 74.4177 8.5108C74.418 10.956 74.4127 13.4012 74.4236 15.8463C74.4252 16.2049 74.459 16.5754 74.5548 16.919C74.7428 17.5939 75.4197 17.7637 75.8829 17.2363C76.4239 16.6202 76.8101 15.9167 76.8063 15.0519C76.7984 13.222 76.8039 11.3921 76.8039 9.56214C76.8039 9.47628 76.8039 9.39042 76.8039 9.27112C76.5206 9.27112 76.2482 9.26164 75.9769 9.27445C75.7958 9.28301 75.7141 9.23491 75.7302 9.03803C75.7461 8.84214 75.7468 8.6428 75.7301 8.44705C75.7122 8.23868 75.8036 8.1894 75.991 8.19789C76.2498 8.20962 76.5096 8.20084 76.8039 8.20084C76.8039 8.10266 76.8039 8.01992 76.8039 7.93719C76.8039 7.23519 76.8084 6.53314 76.8009 5.83122C76.799 5.6536 76.8517 5.58333 77.0379 5.56778C77.5718 5.5232 78.1038 5.45564 78.6368 5.39948C78.7525 5.38729 78.8692 5.38496 79.016 5.37628C79.016 6.32556 79.016 7.25128 79.016 8.20958C79.7341 8.20958 80.4232 8.20958 81.1336 8.20958C81.1336 8.54081 81.1424 8.83994 81.1246 9.13749C81.1218 9.18564 81.0017 9.26398 80.9346 9.26524C80.3826 9.27564 79.8304 9.27112 79.2783 9.27112C79.2004 9.27112 79.1226 9.27112 79.0217 9.27112C79.0217 9.35402 79.0217 9.42188 79.0217 9.48973C79.0217 11.5484 79.0164 13.6071 79.0267 15.6657C79.0285 16.0413 79.0556 16.4252 79.1383 16.79C79.2841 17.4333 79.7401 17.6667 80.3721 17.4754C80.7713 17.3545 81.0727 17.0946 81.264 16.7428C81.5106 16.2891 81.7163 15.8117 81.915 15.3343C81.9647 15.2151 81.9367 15.0542 81.9163 14.9166C81.7012 13.467 81.7605 12.037 82.2643 10.6506C82.7595 9.28785 83.6506 8.33245 85.1337 8.06814C86.0946 7.89691 87.0395 7.97165 87.9119 8.45162C89.0566 9.08148 89.2957 10.5551 88.4104 11.436C87.8565 11.9872 86.9308 11.821 86.6984 11.1286C86.5604 10.7174 86.6789 10.3299 87.0661 10.0497C87.2802 9.89473 87.5267 9.78469 87.7821 9.64125C87.5609 9.31361 87.2226 9.12065 86.8231 9.03881C86.0039 8.871 85.2515 9.2628 84.7873 10.0819C84.3956 10.7729 84.2266 11.5306 84.1325 12.3085C84.0083 13.3354 84.03 14.3548 84.3458 15.3503C84.6235 16.2251 85.076 16.9797 85.925 17.4104C87.4244 18.171 89.2552 17.6111 90.1654 16.1366C90.4024 15.7527 90.5224 15.3571 90.5204 14.8922C90.505 11.3586 90.515 7.82494 90.5057 4.2913C90.505 4.03141 90.5941 3.95083 90.8338 3.93219C91.3759 3.89001 91.9184 3.84205 92.4568 3.76812C92.6868 3.73654 92.7374 3.79545 92.7363 4.01687C92.7281 5.61802 92.7319 7.21923 92.7319 8.82042C92.7319 9.36196 92.7319 9.90349 92.7319 10.5034C92.9211 10.2184 93.0731 9.97585 93.2386 9.74275C93.7405 9.03553 94.3403 8.43473 95.186 8.1623C96.0717 7.87694 96.9483 7.88956 97.7353 8.45658C98.3176 8.87612 98.5266 9.51567 98.6399 10.1897C98.8129 11.2183 98.7178 12.25 98.6665 13.2816C98.6207 14.2028 98.572 15.1246 98.5642 16.0465C98.5613 16.3771 98.6292 16.7252 98.7441 17.036C98.9406 17.5678 99.4961 17.6887 99.9382 17.3311C100.319 17.0233 100.519 16.5915 100.709 16.1588C100.847 15.8425 100.946 15.5091 101.084 15.1922C101.117 15.1147 101.23 15.0269 101.31 15.0225C101.526 15.0107 101.744 15.0414 101.981 15.0501C102 15.0659 102 15.0869 102 15.1237ZM72.0362 16.1482C72.0996 15.9573 72.2163 15.7668 72.2179 15.5754C72.232 13.8176 72.2266 12.0598 72.2249 10.302C72.2248 10.2336 72.2251 10.1534 72.1921 10.0986C71.6595 9.21219 70.409 8.91321 69.6543 9.62918C69.2657 9.99787 69.0348 10.4603 68.8763 10.9591C68.4857 12.1877 68.4168 13.4485 68.5581 14.7213C68.6347 15.4115 68.7881 16.0866 69.145 16.6969C69.6959 17.6392 70.6855 17.771 71.4449 16.9817C71.6705 16.7472 71.829 16.4481 72.0362 16.1482Z" fill="var(--fill-0, #020202)"/>
</g>
<path id="Vector_2" d="M14.533 21.0157C15.2254 21.6804 15.8082 22.4104 16.1869 23.2878C16.3505 23.6669 16.4735 24.0584 16.555 24.463C16.5642 24.5089 16.5757 24.5545 16.5901 24.5989C16.5976 24.6221 16.6137 24.6424 16.6339 24.678C16.7797 24.5864 16.8884 24.4672 16.9992 24.3525C17.8097 23.514 18.3928 22.5254 18.8668 21.4737C19.7083 19.6065 20.1903 17.6441 20.3776 15.6087C20.3861 15.5165 20.387 15.4237 20.3654 15.3214C20.2231 15.537 20.0805 15.7523 19.9387 15.9681C19.4466 16.7171 18.8489 17.3699 18.134 17.9131C17.4689 18.4186 16.7234 18.7451 15.8991 18.8975C15.1942 19.0278 14.4926 19.0371 13.7963 18.8601C12.8214 18.6123 12.12 18.0088 11.6233 17.1575C11.0196 16.1228 10.7998 14.9824 10.7253 13.8054C10.6685 12.9085 10.6859 12.0137 10.8155 11.1227C11.1421 8.87816 11.9313 6.80839 13.1956 4.91981C14.0624 3.62508 15.1098 2.50512 16.4304 1.65626C17.3365 1.07383 18.3203 0.68647 19.3938 0.556498C20.099 0.471114 20.7971 0.503193 21.4506 0.827552C22.184 1.19155 22.6032 1.78813 22.7438 2.58441C22.87 3.29943 22.7695 3.98129 22.384 4.60256C21.9427 5.31388 21.2999 5.75193 20.4728 5.90953C20.2001 5.9615 19.9235 5.99625 19.6444 5.973C19.5742 5.96714 19.4849 5.97536 19.4533 5.89305C19.4242 5.81726 19.4939 5.76866 19.5381 5.72084C19.8944 5.33546 20.2267 4.9337 20.4446 4.45056C20.7873 3.69087 20.8426 2.90563 20.5968 2.11652C20.3451 1.30831 19.678 1.06643 18.9291 1.23052C18.0651 1.41982 17.4058 1.9514 16.809 2.56737C15.8511 3.55587 15.1974 4.73611 14.675 5.99197C14.0686 7.44957 13.6664 8.96331 13.4741 10.5304C13.3614 11.4489 13.3483 12.3678 13.4329 13.2901C13.5014 14.0357 13.6149 14.7706 13.9062 15.4644C14.3172 16.4433 15.0144 17.0739 16.1164 17.1597C16.8366 17.2158 17.493 16.9942 18.102 16.6276C18.8953 16.1502 19.4825 15.4676 19.9931 14.7116C20.4338 14.0591 20.7573 13.3583 20.8959 12.5791C20.9335 12.3676 20.9504 12.1564 20.9418 11.9417C20.9373 11.8286 20.895 11.7834 20.7773 11.7952C19.6665 11.9065 18.6169 12.1982 17.6809 12.829C17.6723 12.8349 17.6639 12.8413 17.6548 12.8464C17.5884 12.8838 17.5218 12.9541 17.4434 12.885C17.3614 12.8129 17.4352 12.7414 17.4646 12.6738C17.6686 12.2047 17.8786 11.7381 18.0764 11.2664C18.1433 11.1069 18.2502 11.0162 18.4115 10.9668C18.8528 10.8317 19.3039 10.7388 19.7561 10.6523C20.8721 10.4387 21.9918 10.2397 23.0162 9.71094C23.2394 9.5957 23.4641 9.48329 23.6876 9.36858C23.752 9.33556 23.808 9.34346 23.8597 9.39271C23.9122 9.44263 23.8976 9.49511 23.8672 9.54892C23.519 10.1653 23.3924 10.8487 23.266 11.5311C23.0511 12.69 22.9279 13.8625 22.7487 15.0268C22.5198 16.5137 22.2183 17.9835 21.6955 19.4C21.1651 20.837 20.4295 22.1591 19.4406 23.3369C18.5037 24.4526 17.4061 25.3643 16.0669 25.9691C15.8663 26.0598 15.6612 26.139 15.4489 26.1979C15.2321 26.2579 15.1986 26.2373 15.1488 26.0178C15.0088 25.4009 14.7539 24.8324 14.4097 24.304C13.8232 23.4035 13.0492 22.6844 12.1881 22.0516C10.8359 21.0579 9.35139 20.2789 7.90298 19.4413C6.78854 18.7968 5.685 18.1353 4.68597 17.318C3.44093 16.2993 2.39734 15.1188 1.73211 13.6391C1.39479 12.8889 1.16816 12.1056 1.04543 11.2918C0.857653 10.0467 0.926054 8.81886 1.2987 7.61273C1.6445 6.4935 2.22614 5.50461 3.00117 4.62711C4.09766 3.38565 5.43806 2.51862 7.0306 2.04485C8.01876 1.75087 9.03077 1.6436 10.0583 1.69199C11.1558 1.74368 12.2147 1.97832 13.2336 2.38799C13.587 2.53011 13.595 2.54153 13.3378 2.81245C12.9039 3.26936 12.5316 3.77267 12.1761 4.2898C12.1466 4.33283 12.1103 4.3716 12.0833 4.41603C12.0176 4.52391 11.9355 4.53904 11.8171 4.496C11.2653 4.29545 10.7039 4.12399 10.1204 4.04424C8.5956 3.83585 7.14544 4.0391 5.85207 4.92054C4.81676 5.62612 4.14802 6.62137 3.75594 7.79639C3.25586 9.29507 3.35861 10.7752 3.95109 12.2279C4.36811 13.2504 5.03289 14.1031 5.81184 14.873C6.86966 15.9187 8.08776 16.7563 9.33782 17.553C10.5021 18.295 11.7052 18.9745 12.8626 19.7273C13.451 20.1099 14.015 20.5243 14.533 21.0157Z" fill="var(--fill-0, #21B2AA)"/>
<path id="Subtract" d="M41.3052 3.49707C41.5128 3.54459 41.7014 3.58273 41.8833 3.6416C42.8397 3.95121 43.3708 4.81681 43.1792 5.74512C43.0662 6.29225 42.5885 6.59834 42.0464 6.47168C41.5941 6.36589 41.3364 5.92621 41.5024 5.43848C41.6005 5.15067 41.8022 4.8981 41.9673 4.6123C41.6032 4.14478 40.6928 4.21384 40.3364 4.78516C40.0821 5.19303 40.0022 5.65791 40.0093 6.12207C40.0252 7.16104 40.0797 8.19964 40.1196 9.27051H41.0679C41.3279 9.27052 41.5886 9.27979 41.8481 9.26758C42.0187 9.25961 42.0699 9.32891 42.064 9.48828C42.0557 9.70863 42.0547 9.93013 42.064 10.1504C42.071 10.3181 42.0021 10.3647 41.8403 10.3623C41.2887 10.354 40.7369 10.3594 40.1685 10.3594V18.2715C41.7184 17.7161 43.0197 16.9127 43.5083 15.2168C43.5514 15.0672 43.623 14.981 43.7905 15.0049C43.8445 15.0126 43.9005 15.0057 43.9556 15.0059C44.5791 15.0074 44.512 14.9615 44.3364 15.5342C43.9203 16.8918 43.0185 17.8627 41.8042 18.5518C41.3616 18.8029 40.8914 19.0108 40.4214 19.208C40.2182 19.2933 40.1363 19.3858 40.146 19.6133C40.18 20.4141 40.096 21.2027 39.814 21.96C39.449 22.9395 38.8551 23.6906 37.7866 23.9561C37.6958 23.9786 37.6016 23.9871 37.5015 24.0195C37.2406 24.037 36.9869 24.0373 36.7026 24.0215C35.8193 23.8364 35.3387 23.3677 35.2358 22.5674C35.1596 21.9739 35.2643 21.4059 35.5718 20.8848C35.9877 20.1798 36.6069 19.681 37.3355 19.3662C37.8398 19.1482 38.0153 18.8626 37.939 18.3428C37.8992 18.0722 37.9321 17.7908 37.9321 17.4502C37.8511 17.5631 37.8157 17.6137 37.7788 17.6631C37.3092 18.2913 36.7454 18.8002 35.9517 18.9561C34.7832 19.1854 33.6343 18.8279 33.2476 17.3613C33.2214 17.2622 33.1978 17.162 33.1675 17.041C33.0789 17.1438 33.0139 17.223 32.9458 17.2988C32.0233 18.3264 30.7066 18.6437 29.5425 18.1006C29.3511 18.0114 29.2453 18.0431 29.0942 18.1709C27.7233 19.3315 25.0482 19.5185 23.6851 17.417C23.5359 17.187 23.4049 16.9446 23.2632 16.6953L23.2642 16.6924C23.2587 16.676 22.9655 15.7976 22.8423 15.2168C22.7556 14.808 22.6859 14.2256 22.6528 13.9297C22.5845 12.8543 22.733 11.7913 23.106 10.7568C23.4771 9.72754 24.0543 8.85074 25.0698 8.34961C26.5084 7.63976 29.1241 7.79481 30.1597 10.2305C30.6711 11.4336 30.7783 12.6963 30.7368 13.9824C30.7022 15.0558 30.5071 16.0925 29.9976 17.0742C30.4053 17.386 30.8566 17.4109 31.3198 17.29C32.0685 17.0945 32.4926 16.5391 32.8218 15.8857C32.9878 15.5562 33.0628 15.2163 33.062 14.8428C33.0539 11.3253 33.0597 7.80749 33.0522 4.29004C33.0517 4.05298 33.1101 3.95287 33.3579 3.93457C33.9392 3.89163 34.5189 3.82618 35.0981 3.75977C35.2423 3.74324 35.2854 3.79351 35.2778 3.92383C35.2742 3.98671 35.2769 4.05019 35.2769 4.11328C35.2769 8.05664 35.2749 12 35.2808 15.9434C35.2812 16.2641 35.3029 16.5925 35.3726 16.9043C35.4996 17.4725 35.9966 17.6882 36.523 17.4287C37.0159 17.1855 37.2853 16.7363 37.5415 16.2812C37.8115 15.8016 37.9552 15.3018 37.9419 14.7324C37.9099 13.3687 37.9321 12.0031 37.9321 10.6387V10.3594C37.6375 10.3594 37.3552 10.3529 37.0737 10.3623C36.9195 10.3674 36.8623 10.3138 36.8687 10.1582C36.8783 9.92223 36.8758 9.68543 36.8696 9.44922C36.8662 9.31696 36.9163 9.26571 37.0493 9.26855C37.3389 9.27477 37.6289 9.27051 37.9321 9.27051C37.9321 8.72084 37.9287 8.19374 37.9331 7.66699C37.9391 6.94813 37.9906 6.23423 38.2095 5.54297C38.5566 4.44684 39.2493 3.72868 40.4224 3.51465C40.713 3.49713 40.9982 3.49707 41.3052 3.49707ZM37.5161 20.3418C37.2155 20.5796 36.8889 20.7915 36.6206 21.0615C36.3148 21.3694 36.1833 21.7683 36.2632 22.2109C36.3488 22.6847 36.7834 22.8916 37.188 22.6289C37.3504 22.5234 37.4979 22.3532 37.5835 22.1787C37.895 21.5438 37.919 20.8542 37.9272 20.125C37.778 20.202 37.6619 20.2626 37.5161 20.3418ZM29.0161 10.168C28.5846 9.44797 27.9033 9.12686 27.0757 9.26562C26.324 9.39178 25.8227 9.86652 25.5288 10.5244C24.6724 12.4416 24.6917 14.3858 25.4702 16.3232C25.6897 16.8692 26.0526 17.3221 26.606 17.5664C27.2413 17.8468 27.868 17.8129 28.4771 17.4414C27.456 16.2838 28.0261 14.2526 29.7622 14.29C29.7622 14.0787 29.7624 13.8669 29.7622 13.6123C29.7364 13.2037 29.7263 12.7932 29.6812 12.3867C29.5947 11.6083 29.4258 10.8515 29.0161 10.168Z" fill="var(--fill-0, #020202)"/>
</g>
</svg>
