<svg width="380" height="41" viewBox="0 0 380 41" fill="none" xmlns="http://www.w3.org/2000/svg">
<path d="M42.5652 4.24622C44.2557 5.50528 45.1009 6.13481 45.5504 6.97966C46 7.82451 46 8.78339 46 10.7012V12.1925C46 16.2266 46 18.2436 44.5355 19.4968C43.0711 20.75 40.714 20.75 36 20.75C31.286 20.75 28.9289 20.75 27.4645 19.4968C26 18.2436 26 16.2266 26 12.1925L26 10.7012C26 8.78339 26 7.82451 26.4496 6.97966C26.8991 6.13481 27.7443 5.50528 29.4348 4.24622C32.5641 1.91541 34.1288 0.75 36 0.75C37.8712 0.75 39.4359 1.91541 42.5652 4.24622Z" fill="#21B2AA"/>
<rect x="39.25" y="15" width="6.5" height="6.5" rx="3.25" transform="rotate(-180 39.25 15)" fill="#21B2AA" stroke="white" stroke-width="1.5"/>
<path d="M25.2496 28.138C25.2416 28.194 25.2256 28.286 25.2016 28.414C25.1856 28.542 25.1696 28.678 25.1536 28.822C25.1456 28.966 25.1416 29.086 25.1416 29.182C25.1416 29.422 25.1416 29.686 25.1416 29.974C25.1416 30.262 25.1416 30.55 25.1416 30.838C25.1416 31.118 25.1416 31.374 25.1416 31.606C25.1416 31.766 25.1416 31.99 25.1416 32.278C25.1416 32.566 25.1416 32.89 25.1416 33.25C25.1416 33.61 25.1416 33.986 25.1416 34.378C25.1416 34.762 25.1416 35.138 25.1416 35.506C25.1416 35.866 25.1416 36.194 25.1416 36.49C25.1416 36.778 25.1416 37.006 25.1416 37.174C25.1416 37.518 25.0376 37.79 24.8296 37.99C24.6296 38.198 24.3136 38.302 23.8816 38.302C23.6656 38.302 23.4456 38.298 23.2216 38.29C22.9976 38.282 22.7776 38.27 22.5616 38.254C22.3456 38.238 22.1376 38.218 21.9376 38.194L21.7816 36.706C22.0456 36.754 22.2976 36.79 22.5376 36.814C22.7776 36.838 22.9736 36.85 23.1256 36.85C23.2776 36.85 23.3856 36.818 23.4496 36.754C23.5136 36.682 23.5496 36.57 23.5576 36.418C23.5576 36.346 23.5576 36.19 23.5576 35.95C23.5656 35.71 23.5696 35.426 23.5696 35.098C23.5696 34.77 23.5696 34.422 23.5696 34.054C23.5696 33.686 23.5696 33.334 23.5696 32.998C23.5696 32.662 23.5696 32.37 23.5696 32.122C23.5696 31.874 23.5696 31.702 23.5696 31.606C23.5696 31.462 23.5696 31.246 23.5696 30.958C23.5696 30.662 23.5696 30.35 23.5696 30.022C23.5696 29.694 23.5696 29.414 23.5696 29.182C23.5696 29.022 23.5576 28.834 23.5336 28.618C23.5096 28.402 23.4896 28.242 23.4736 28.138H25.2496ZM19.3696 30.058C19.5456 30.074 19.7336 30.094 19.9336 30.118C20.1416 30.134 20.3376 30.142 20.5216 30.142C20.6256 30.142 20.8216 30.142 21.1096 30.142C21.4056 30.142 21.7536 30.142 22.1536 30.142C22.5616 30.142 23.0016 30.142 23.4736 30.142C23.9456 30.142 24.4176 30.142 24.8896 30.142C25.3616 30.142 25.8056 30.142 26.2216 30.142C26.6376 30.142 26.9936 30.142 27.2896 30.142C27.5936 30.142 27.8056 30.142 27.9256 30.142C28.0936 30.142 28.2936 30.134 28.5256 30.118C28.7576 30.102 28.9536 30.082 29.1136 30.058V31.63C28.9296 31.614 28.7296 31.606 28.5136 31.606C28.2976 31.598 28.1056 31.594 27.9376 31.594C27.8176 31.594 27.6096 31.594 27.3136 31.594C27.0176 31.594 26.6616 31.594 26.2456 31.594C25.8296 31.594 25.3856 31.594 24.9136 31.594C24.4416 31.594 23.9696 31.594 23.4976 31.594C23.0336 31.594 22.5936 31.594 22.1776 31.594C21.7696 31.594 21.4216 31.594 21.1336 31.594C20.8456 31.594 20.6416 31.594 20.5216 31.594C20.3456 31.594 20.1496 31.598 19.9336 31.606C19.7256 31.614 19.5376 31.626 19.3696 31.642V30.058ZM22.4296 33.31C22.2856 33.574 22.1176 33.862 21.9256 34.174C21.7336 34.486 21.5256 34.798 21.3016 35.11C21.0856 35.422 20.8736 35.714 20.6656 35.986C20.4576 36.25 20.2736 36.47 20.1136 36.646L18.8056 35.758C19.0056 35.574 19.2096 35.358 19.4176 35.11C19.6336 34.854 19.8416 34.586 20.0416 34.306C20.2496 34.026 20.4376 33.746 20.6056 33.466C20.7816 33.186 20.9336 32.918 21.0616 32.662L22.4296 33.31ZM27.5776 32.626C27.7296 32.818 27.8976 33.046 28.0816 33.31C28.2736 33.574 28.4656 33.858 28.6576 34.162C28.8496 34.458 29.0296 34.75 29.1976 35.038C29.3656 35.318 29.5096 35.566 29.6296 35.782L28.2256 36.55C28.0976 36.294 27.9496 36.018 27.7816 35.722C27.6216 35.426 27.4536 35.13 27.2776 34.834C27.1016 34.538 26.9256 34.262 26.7496 34.006C26.5736 33.742 26.4136 33.518 26.2696 33.334L27.5776 32.626ZM31.2856 32.194C31.4296 32.202 31.6136 32.214 31.8376 32.23C32.0616 32.238 32.2936 32.246 32.5336 32.254C32.7816 32.262 33.0096 32.266 33.2176 32.266C33.4176 32.266 33.6656 32.266 33.9616 32.266C34.2576 32.266 34.5776 32.266 34.9216 32.266C35.2736 32.266 35.6336 32.266 36.0016 32.266C36.3776 32.266 36.7496 32.266 37.1176 32.266C37.4856 32.266 37.8336 32.266 38.1616 32.266C38.4896 32.266 38.7816 32.266 39.0376 32.266C39.3016 32.266 39.5096 32.266 39.6616 32.266C39.9416 32.266 40.2056 32.258 40.4536 32.242C40.7016 32.218 40.9056 32.202 41.0656 32.194V34.078C40.9296 34.07 40.7256 34.058 40.4536 34.042C40.1816 34.026 39.9176 34.018 39.6616 34.018C39.5096 34.018 39.3016 34.018 39.0376 34.018C38.7736 34.018 38.4776 34.018 38.1496 34.018C37.8216 34.018 37.4736 34.018 37.1056 34.018C36.7456 34.018 36.3776 34.018 36.0016 34.018C35.6256 34.018 35.2616 34.018 34.9096 34.018C34.5656 34.018 34.2456 34.018 33.9496 34.018C33.6616 34.018 33.4176 34.018 33.2176 34.018C32.8736 34.018 32.5216 34.026 32.1616 34.042C31.8016 34.05 31.5096 34.062 31.2856 34.078V32.194ZM48.4784 28.702C48.3984 28.878 48.3144 29.078 48.2264 29.302C48.1384 29.518 48.0504 29.762 47.9624 30.034C47.8904 30.258 47.7984 30.546 47.6864 30.898C47.5744 31.242 47.4504 31.622 47.3144 32.038C47.1784 32.446 47.0344 32.87 46.8824 33.31C46.7384 33.742 46.5984 34.162 46.4624 34.57C46.3264 34.978 46.1984 35.35 46.0784 35.686C45.9584 36.014 45.8544 36.282 45.7664 36.49L43.9904 36.55C44.1024 36.294 44.2264 35.982 44.3624 35.614C44.4984 35.246 44.6424 34.846 44.7944 34.414C44.9464 33.974 45.0944 33.526 45.2384 33.07C45.3904 32.614 45.5304 32.174 45.6584 31.75C45.7944 31.326 45.9144 30.934 46.0184 30.574C46.1304 30.214 46.2184 29.922 46.2824 29.698C46.3624 29.386 46.4224 29.13 46.4624 28.93C46.5104 28.722 46.5464 28.514 46.5704 28.306L48.4784 28.702ZM50.6264 32.578C50.8424 32.898 51.0744 33.274 51.3224 33.706C51.5704 34.138 51.8144 34.59 52.0544 35.062C52.3024 35.526 52.5304 35.974 52.7384 36.406C52.9464 36.838 53.1184 37.226 53.2544 37.57L51.6344 38.29C51.4984 37.922 51.3304 37.506 51.1304 37.042C50.9384 36.578 50.7264 36.106 50.4944 35.626C50.2704 35.146 50.0384 34.694 49.7984 34.27C49.5664 33.838 49.3424 33.478 49.1264 33.19L50.6264 32.578ZM43.8824 36.022C44.1544 36.006 44.4824 35.986 44.8664 35.962C45.2584 35.93 45.6784 35.894 46.1264 35.854C46.5744 35.806 47.0304 35.758 47.4944 35.71C47.9664 35.662 48.4264 35.614 48.8744 35.566C49.3304 35.51 49.7544 35.458 50.1464 35.41C50.5384 35.362 50.8704 35.318 51.1424 35.278L51.5024 36.814C51.2064 36.854 50.8504 36.898 50.4344 36.946C50.0264 36.994 49.5864 37.046 49.1144 37.102C48.6424 37.15 48.1624 37.202 47.6744 37.258C47.1864 37.314 46.7104 37.366 46.2464 37.414C45.7824 37.462 45.3544 37.506 44.9624 37.546C44.5704 37.578 44.2384 37.61 43.9664 37.642C43.8144 37.658 43.6344 37.682 43.4264 37.714C43.2264 37.738 43.0304 37.762 42.8384 37.786L42.5624 36.034C42.7624 36.034 42.9824 36.034 43.2224 36.034C43.4704 36.034 43.6904 36.03 43.8824 36.022Z" fill="#21B2AA"/>
<circle cx="113" cy="9.47358" r="8.72358" stroke="#6B7280" stroke-width="1.5"/>
<path d="M118.452 17.1067L121.303 20.75" stroke="#6B7280" stroke-width="1.5" stroke-linecap="round"/>
<rect x="111.276" y="4.75" width="5" height="3" rx="1" stroke="#6B7280" stroke-width="1.5"/>
<rect x="109.276" y="10.75" width="7" height="3" rx="1" stroke="#6B7280" stroke-width="1.5"/>
<path d="M101.084 29.23C101.036 29.094 100.98 28.926 100.916 28.726C100.852 28.526 100.78 28.326 100.7 28.126L102.32 27.934C102.384 28.246 102.456 28.558 102.536 28.87C102.616 29.174 102.704 29.474 102.8 29.77C102.896 30.058 102.992 30.33 103.088 30.586C103.272 31.082 103.488 31.57 103.736 32.05C103.992 32.522 104.216 32.894 104.408 33.166C104.512 33.318 104.616 33.462 104.72 33.598C104.832 33.726 104.944 33.85 105.056 33.97L104.312 35.05C104.144 35.018 103.932 34.986 103.676 34.954C103.42 34.914 103.14 34.878 102.836 34.846C102.54 34.814 102.24 34.782 101.936 34.75C101.64 34.718 101.368 34.694 101.12 34.678L101.24 33.406C101.44 33.422 101.652 33.442 101.876 33.466C102.1 33.482 102.308 33.498 102.5 33.514C102.7 33.53 102.864 33.542 102.992 33.55C102.848 33.318 102.696 33.054 102.536 32.758C102.376 32.462 102.22 32.154 102.068 31.834C101.916 31.506 101.776 31.178 101.648 30.85C101.52 30.514 101.408 30.21 101.312 29.938C101.224 29.666 101.148 29.43 101.084 29.23ZM96.716 29.794C97.46 29.882 98.16 29.942 98.816 29.974C99.472 30.006 100.084 30.014 100.652 29.998C101.22 29.982 101.74 29.946 102.212 29.89C102.58 29.842 102.936 29.79 103.28 29.734C103.632 29.678 103.976 29.61 104.312 29.53C104.656 29.45 104.98 29.362 105.284 29.266L105.476 30.778C105.212 30.85 104.924 30.918 104.612 30.982C104.308 31.046 103.992 31.106 103.664 31.162C103.336 31.21 103.012 31.254 102.692 31.294C101.884 31.382 100.996 31.434 100.028 31.45C99.06 31.466 97.964 31.426 96.74 31.33L96.716 29.794ZM99.116 33.886C98.932 34.166 98.788 34.442 98.684 34.714C98.58 34.978 98.528 35.242 98.528 35.506C98.528 36.01 98.748 36.378 99.188 36.61C99.628 36.834 100.256 36.946 101.072 36.946C101.728 36.946 102.32 36.918 102.848 36.862C103.384 36.806 103.864 36.738 104.288 36.658L104.204 38.17C103.868 38.234 103.428 38.298 102.884 38.362C102.348 38.426 101.712 38.458 100.976 38.458C100.168 38.45 99.464 38.342 98.864 38.134C98.264 37.934 97.8 37.634 97.472 37.234C97.144 36.826 96.98 36.338 96.98 35.77C96.98 35.402 97.032 35.042 97.136 34.69C97.248 34.33 97.408 33.946 97.616 33.538L99.116 33.886ZM112.46 28.354C112.428 28.506 112.392 28.674 112.352 28.858C112.312 29.034 112.276 29.198 112.244 29.35C112.212 29.526 112.172 29.726 112.124 29.95C112.076 30.166 112.028 30.386 111.98 30.61C111.94 30.826 111.896 31.038 111.848 31.246C111.768 31.59 111.668 31.99 111.548 32.446C111.428 32.902 111.288 33.394 111.128 33.922C110.968 34.442 110.788 34.966 110.588 35.494C110.388 36.022 110.176 36.538 109.952 37.042C109.728 37.538 109.488 37.986 109.232 38.386L107.672 37.762C107.952 37.386 108.212 36.966 108.452 36.502C108.7 36.03 108.924 35.55 109.124 35.062C109.324 34.566 109.5 34.078 109.652 33.598C109.812 33.11 109.948 32.658 110.06 32.242C110.18 31.826 110.272 31.47 110.336 31.174C110.448 30.63 110.536 30.106 110.6 29.602C110.664 29.098 110.688 28.622 110.672 28.174L112.46 28.354ZM116.588 29.566C116.78 29.83 116.976 30.154 117.176 30.538C117.384 30.914 117.588 31.314 117.788 31.738C117.988 32.162 118.168 32.57 118.328 32.962C118.488 33.354 118.612 33.694 118.7 33.982L117.176 34.678C117.104 34.342 116.996 33.97 116.852 33.562C116.716 33.154 116.556 32.742 116.372 32.326C116.188 31.902 115.992 31.502 115.784 31.126C115.584 30.75 115.376 30.434 115.16 30.178L116.588 29.566ZM107.588 30.814C107.804 30.83 108.016 30.838 108.224 30.838C108.44 30.83 108.656 30.822 108.872 30.814C109.072 30.806 109.312 30.794 109.592 30.778C109.872 30.754 110.168 30.73 110.48 30.706C110.8 30.682 111.12 30.658 111.44 30.634C111.76 30.602 112.056 30.578 112.328 30.562C112.6 30.546 112.824 30.538 113 30.538C113.432 30.538 113.808 30.61 114.128 30.754C114.448 30.89 114.7 31.126 114.884 31.462C115.076 31.798 115.172 32.254 115.172 32.83C115.172 33.302 115.152 33.814 115.112 34.366C115.072 34.918 115 35.446 114.896 35.95C114.8 36.454 114.664 36.882 114.488 37.234C114.296 37.65 114.032 37.938 113.696 38.098C113.368 38.258 112.976 38.338 112.52 38.338C112.296 38.338 112.052 38.318 111.788 38.278C111.524 38.246 111.288 38.21 111.08 38.17L110.828 36.586C110.98 36.626 111.148 36.666 111.332 36.706C111.524 36.746 111.704 36.778 111.872 36.802C112.048 36.826 112.188 36.838 112.292 36.838C112.492 36.838 112.668 36.802 112.82 36.73C112.972 36.65 113.096 36.514 113.192 36.322C113.304 36.09 113.396 35.79 113.468 35.422C113.54 35.054 113.592 34.658 113.624 34.234C113.664 33.802 113.684 33.39 113.684 32.998C113.684 32.678 113.636 32.442 113.54 32.29C113.452 32.138 113.32 32.038 113.144 31.99C112.976 31.934 112.768 31.906 112.52 31.906C112.336 31.906 112.088 31.922 111.776 31.954C111.464 31.978 111.128 32.01 110.768 32.05C110.416 32.082 110.088 32.118 109.784 32.158C109.48 32.198 109.244 32.226 109.076 32.242C108.9 32.274 108.676 32.31 108.404 32.35C108.14 32.382 107.916 32.414 107.732 32.446L107.588 30.814ZM116.372 27.898C116.476 28.042 116.584 28.214 116.696 28.414C116.816 28.614 116.932 28.814 117.044 29.014C117.156 29.214 117.252 29.39 117.332 29.542L116.36 29.962C116.28 29.794 116.188 29.61 116.084 29.41C115.98 29.21 115.872 29.01 115.76 28.81C115.648 28.61 115.536 28.438 115.424 28.294L116.372 27.898ZM117.8 27.358C117.904 27.51 118.016 27.686 118.136 27.886C118.256 28.086 118.372 28.286 118.484 28.486C118.604 28.686 118.696 28.854 118.76 28.99L117.812 29.398C117.684 29.15 117.532 28.87 117.356 28.558C117.18 28.238 117.008 27.966 116.84 27.742L117.8 27.358ZM126.836 28.078C126.828 28.142 126.816 28.246 126.8 28.39C126.792 28.526 126.784 28.666 126.776 28.81C126.768 28.946 126.76 29.046 126.752 29.11C126.744 29.27 126.74 29.486 126.74 29.758C126.74 30.022 126.74 30.318 126.74 30.646C126.74 30.974 126.74 31.306 126.74 31.642C126.748 31.97 126.752 32.282 126.752 32.578C126.76 32.866 126.764 33.106 126.764 33.298L125.264 32.794C125.264 32.642 125.264 32.442 125.264 32.194C125.264 31.938 125.264 31.662 125.264 31.366C125.264 31.062 125.26 30.762 125.252 30.466C125.252 30.17 125.248 29.902 125.24 29.662C125.232 29.422 125.224 29.242 125.216 29.122C125.2 28.874 125.18 28.658 125.156 28.474C125.132 28.282 125.112 28.15 125.096 28.078H126.836ZM120.056 29.566C120.408 29.566 120.808 29.562 121.256 29.554C121.704 29.546 122.172 29.538 122.66 29.53C123.148 29.522 123.628 29.514 124.1 29.506C124.572 29.498 125.016 29.494 125.432 29.494C125.848 29.486 126.208 29.482 126.512 29.482C126.816 29.482 127.148 29.482 127.508 29.482C127.868 29.474 128.224 29.47 128.576 29.47C128.928 29.47 129.248 29.47 129.536 29.47C129.832 29.47 130.06 29.47 130.22 29.47L130.208 30.886C129.832 30.87 129.336 30.858 128.72 30.85C128.104 30.834 127.352 30.826 126.464 30.826C125.92 30.826 125.368 30.834 124.808 30.85C124.248 30.858 123.692 30.87 123.14 30.886C122.588 30.902 122.056 30.922 121.544 30.946C121.032 30.962 120.548 30.986 120.092 31.018L120.056 29.566ZM126.548 33.118C126.548 33.774 126.468 34.318 126.308 34.75C126.156 35.182 125.924 35.51 125.612 35.734C125.3 35.95 124.912 36.058 124.448 36.058C124.224 36.058 123.988 36.01 123.74 35.914C123.5 35.818 123.276 35.678 123.068 35.494C122.86 35.31 122.692 35.082 122.564 34.81C122.444 34.538 122.384 34.218 122.384 33.85C122.384 33.394 122.492 33.002 122.708 32.674C122.924 32.338 123.212 32.078 123.572 31.894C123.94 31.702 124.344 31.606 124.784 31.606C125.312 31.606 125.752 31.726 126.104 31.966C126.464 32.198 126.732 32.514 126.908 32.914C127.092 33.314 127.184 33.766 127.184 34.27C127.184 34.662 127.12 35.07 126.992 35.494C126.864 35.918 126.652 36.334 126.356 36.742C126.068 37.142 125.676 37.506 125.18 37.834C124.692 38.162 124.08 38.43 123.344 38.638L122.06 37.366C122.572 37.262 123.048 37.126 123.488 36.958C123.928 36.79 124.312 36.578 124.64 36.322C124.976 36.066 125.236 35.75 125.42 35.374C125.612 34.998 125.708 34.546 125.708 34.018C125.708 33.634 125.612 33.346 125.42 33.154C125.236 32.962 125.012 32.866 124.748 32.866C124.596 32.866 124.448 32.902 124.304 32.974C124.16 33.046 124.044 33.154 123.956 33.298C123.868 33.442 123.824 33.618 123.824 33.826C123.824 34.098 123.916 34.318 124.1 34.486C124.292 34.646 124.508 34.726 124.748 34.726C124.94 34.726 125.108 34.666 125.252 34.546C125.404 34.426 125.504 34.226 125.552 33.946C125.6 33.666 125.56 33.29 125.432 32.818L126.548 33.118Z" fill="#6B7280"/>
<mask id="path-9-inside-1_45_4402" fill="white">
<path d="M186.5 0.75C188.848 0.750076 190.75 2.65284 190.75 5C190.75 5.88469 190.479 6.70541 190.016 7.38574C192.949 8.66214 195 11.5848 195 14.9873C194.999 16.5127 193.763 17.7488 192.238 17.749H180.763C179.238 17.749 178.001 16.5128 178 14.9873C178 11.5852 180.051 8.6624 182.983 7.38574C182.521 6.70556 182.25 5.88436 182.25 5C182.25 2.6528 184.153 0.75 186.5 0.75Z"/>
</mask>
<path d="M186.5 0.75C188.848 0.750076 190.75 2.65284 190.75 5C190.75 5.88469 190.479 6.70541 190.016 7.38574C192.949 8.66214 195 11.5848 195 14.9873C194.999 16.5127 193.763 17.7488 192.238 17.749H180.763C179.238 17.749 178.001 16.5128 178 14.9873C178 11.5852 180.051 8.6624 182.983 7.38574C182.521 6.70556 182.25 5.88436 182.25 5C182.25 2.6528 184.153 0.75 186.5 0.75Z" fill="white"/>
<path d="M186.5 0.75L186.501 -0.75H186.5V0.75ZM190.75 5L192.25 5V5H190.75ZM190.016 7.38574L188.776 6.54239L187.758 8.03894L189.418 8.76112L190.016 7.38574ZM195 14.9873L196.5 14.9875V14.9873H195ZM192.238 17.749V19.249H192.238L192.238 17.749ZM178 14.9873H176.5V14.9875L178 14.9873ZM182.983 7.38574L183.582 8.76103L185.24 8.03887L184.224 6.54267L182.983 7.38574ZM182.25 5H180.75V5L182.25 5ZM186.5 0.75L186.5 2.25C188.019 2.25005 189.25 3.48134 189.25 5H190.75H192.25C192.25 1.82435 189.676 -0.749897 186.501 -0.75L186.5 0.75ZM190.75 5L189.25 5C189.25 5.57244 189.076 6.10114 188.776 6.54239L190.016 7.38574L191.257 8.22909C191.882 7.30969 192.25 6.19695 192.25 5L190.75 5ZM190.016 7.38574L189.418 8.76112C191.823 9.80797 193.5 12.2032 193.5 14.9873H195H196.5C196.5 10.9663 194.075 7.51632 190.615 6.01036L190.016 7.38574ZM195 14.9873L193.5 14.9871C193.499 15.6842 192.935 16.2489 192.238 16.249L192.238 17.749L192.238 19.249C194.592 19.2487 196.499 17.3412 196.5 14.9875L195 14.9873ZM192.238 17.749V16.249H180.763V17.749V19.249H192.238V17.749ZM180.763 17.749V16.249C180.066 16.249 179.501 15.6839 179.5 14.9871L178 14.9873L176.5 14.9875C176.501 17.3418 178.41 19.249 180.763 19.249V17.749ZM178 14.9873H179.5C179.5 12.2035 181.177 9.80807 183.582 8.76103L182.983 7.38574L182.384 6.01045C178.925 7.51674 176.5 10.9669 176.5 14.9873H178ZM182.983 7.38574L184.224 6.54267C183.925 6.10318 183.75 5.57417 183.75 5L182.25 5L180.75 5C180.75 6.19454 181.116 7.30795 181.742 8.22882L182.983 7.38574ZM182.25 5H183.75C183.75 3.48124 184.982 2.25 186.5 2.25V0.75V-0.75C183.325 -0.75 180.75 1.82435 180.75 5H182.25Z" fill="#6B7280" mask="url(#path-9-inside-1_45_4402)"/>
<mask id="path-11-inside-2_45_4402" fill="white">
<path d="M192 0.75C194.761 0.75022 196.999 2.98872 196.999 5.75C196.999 6.79059 196.681 7.75635 196.137 8.55664C199.587 10.0584 201.999 13.4972 201.999 17.5C201.999 19.2948 200.544 20.75 198.749 20.75H185.25C183.455 20.75 182 19.2948 182 17.5C182 13.4977 184.412 10.0597 187.861 8.55762C187.317 7.7573 187 6.79065 187 5.75C187 2.98859 189.239 0.75 192 0.75Z"/>
</mask>
<path d="M192 0.75C194.761 0.75022 196.999 2.98872 196.999 5.75C196.999 6.79059 196.681 7.75635 196.137 8.55664C199.587 10.0584 201.999 13.4972 201.999 17.5C201.999 19.2948 200.544 20.75 198.749 20.75H185.25C183.455 20.75 182 19.2948 182 17.5C182 13.4977 184.412 10.0597 187.861 8.55762C187.317 7.7573 187 6.79065 187 5.75C187 2.98859 189.239 0.75 192 0.75Z" fill="white"/>
<path d="M192 0.75L192 -0.75H192V0.75ZM196.999 5.75L198.499 5.75001V5.75H196.999ZM196.137 8.55664L194.896 7.71344L193.879 9.20987L195.538 9.932L196.137 8.55664ZM201.999 17.5L203.499 17.5001V17.5H201.999ZM185.25 20.75L185.25 22.25H185.25V20.75ZM182 17.5H180.5V17.5001L182 17.5ZM187.861 8.55762L188.46 9.93287L190.119 9.21056L189.102 7.71438L187.861 8.55762ZM187 5.75H185.5V5.75001L187 5.75ZM192 0.75L192 2.25C193.932 2.25015 195.499 3.8169 195.499 5.75H196.999H198.499C198.499 2.16054 195.59 -0.749714 192 -0.75L192 0.75ZM196.999 5.75L195.499 5.74999C195.499 6.47984 195.277 7.15343 194.896 7.71344L196.137 8.55664L197.377 9.39984C198.085 8.35928 198.499 7.10135 198.499 5.75001L196.999 5.75ZM196.137 8.55664L195.538 9.932C198.461 11.2041 200.499 14.1155 200.499 17.5H201.999H203.499C203.499 12.8789 200.713 8.91264 196.735 7.18129L196.137 8.55664ZM201.999 17.5L200.499 17.4999C200.499 18.4665 199.715 19.25 198.749 19.25V20.75V22.25C201.372 22.25 203.499 20.1231 203.499 17.5001L201.999 17.5ZM198.749 20.75V19.25H185.25V20.75V22.25H198.749V20.75ZM185.25 20.75L185.25 19.25C184.284 19.25 183.5 18.4664 183.5 17.4999L182 17.5L180.5 17.5001C180.5 20.1231 182.627 22.25 185.25 22.25L185.25 20.75ZM182 17.5H183.5C183.5 14.1161 185.538 11.2054 188.46 9.93287L187.861 8.55762L187.262 7.18236C183.286 8.91403 180.5 12.8793 180.5 17.5H182ZM187.861 8.55762L189.102 7.71438C188.722 7.15547 188.5 6.48121 188.5 5.74999L187 5.75L185.5 5.75001C185.5 7.1001 185.913 8.35913 186.621 9.40086L187.861 8.55762ZM187 5.75H188.5C188.5 3.81703 190.067 2.25 192 2.25V0.75V-0.75C188.41 -0.75 185.5 2.16014 185.5 5.75H187Z" fill="#6B7280" mask="url(#path-11-inside-2_45_4402)"/>
<path d="M166.648 31.174C166.872 31.134 167.12 31.078 167.392 31.006C167.664 30.934 167.908 30.87 168.124 30.814C168.356 30.742 168.668 30.642 169.06 30.514C169.46 30.386 169.9 30.258 170.38 30.13C170.86 30.002 171.348 29.894 171.844 29.806C172.348 29.71 172.816 29.662 173.248 29.662C173.976 29.662 174.632 29.798 175.216 30.07C175.8 30.342 176.264 30.734 176.608 31.246C176.952 31.758 177.124 32.386 177.124 33.13C177.124 33.674 177.024 34.178 176.824 34.642C176.624 35.106 176.328 35.522 175.936 35.89C175.552 36.258 175.084 36.578 174.532 36.85C173.98 37.122 173.348 37.342 172.636 37.51C171.932 37.67 171.156 37.77 170.308 37.81L169.612 36.214C170.428 36.198 171.184 36.126 171.88 35.998C172.584 35.862 173.2 35.67 173.728 35.422C174.256 35.166 174.668 34.846 174.964 34.462C175.26 34.078 175.408 33.626 175.408 33.106C175.408 32.73 175.324 32.394 175.156 32.098C174.988 31.794 174.736 31.554 174.4 31.378C174.072 31.202 173.668 31.114 173.188 31.114C172.836 31.114 172.448 31.158 172.024 31.246C171.6 31.326 171.164 31.434 170.716 31.57C170.276 31.706 169.844 31.854 169.42 32.014C168.996 32.166 168.604 32.318 168.244 32.47C167.884 32.622 167.58 32.75 167.332 32.854L166.648 31.174ZM178.996 29.89C179.252 29.922 179.524 29.946 179.812 29.962C180.108 29.97 180.368 29.974 180.592 29.974C181.088 29.974 181.588 29.946 182.092 29.89C182.604 29.834 183.096 29.762 183.568 29.674C184.04 29.578 184.468 29.47 184.852 29.35L184.9 30.742C184.556 30.83 184.144 30.922 183.664 31.018C183.192 31.106 182.692 31.182 182.164 31.246C181.636 31.302 181.116 31.33 180.604 31.33C180.364 31.33 180.12 31.326 179.872 31.318C179.624 31.31 179.368 31.298 179.104 31.282L178.996 29.89ZM183.664 28.09C183.616 28.29 183.552 28.55 183.472 28.87C183.392 29.19 183.3 29.526 183.196 29.878C183.1 30.23 182.996 30.578 182.884 30.922C182.708 31.498 182.476 32.11 182.188 32.758C181.9 33.406 181.588 34.038 181.252 34.654C180.916 35.27 180.576 35.818 180.232 36.298L178.78 35.554C179.052 35.218 179.32 34.846 179.584 34.438C179.848 34.03 180.096 33.61 180.328 33.178C180.56 32.746 180.768 32.33 180.952 31.93C181.144 31.522 181.296 31.154 181.408 30.826C181.56 30.402 181.692 29.93 181.804 29.41C181.924 28.882 181.992 28.386 182.008 27.922L183.664 28.09ZM186.472 31.822C186.456 32.078 186.448 32.334 186.448 32.59C186.456 32.838 186.464 33.094 186.472 33.358C186.48 33.542 186.488 33.778 186.496 34.066C186.512 34.346 186.528 34.646 186.544 34.966C186.56 35.278 186.572 35.578 186.58 35.866C186.596 36.146 186.604 36.37 186.604 36.538C186.604 36.906 186.528 37.242 186.376 37.546C186.224 37.842 185.98 38.078 185.644 38.254C185.316 38.43 184.864 38.518 184.288 38.518C183.792 38.518 183.344 38.442 182.944 38.29C182.544 38.146 182.224 37.93 181.984 37.642C181.744 37.346 181.624 36.978 181.624 36.538C181.624 36.146 181.728 35.794 181.936 35.482C182.144 35.162 182.444 34.914 182.836 34.738C183.236 34.554 183.716 34.462 184.276 34.462C184.98 34.462 185.628 34.562 186.22 34.762C186.812 34.954 187.344 35.202 187.816 35.506C188.288 35.81 188.692 36.114 189.028 36.418L188.224 37.702C188.008 37.51 187.76 37.294 187.48 37.054C187.208 36.814 186.9 36.59 186.556 36.382C186.22 36.174 185.852 36.002 185.452 35.866C185.06 35.73 184.636 35.662 184.18 35.662C183.836 35.662 183.56 35.73 183.352 35.866C183.144 36.002 183.04 36.178 183.04 36.394C183.04 36.618 183.128 36.798 183.304 36.934C183.488 37.07 183.744 37.138 184.072 37.138C184.344 37.138 184.56 37.094 184.72 37.006C184.88 36.91 184.992 36.778 185.056 36.61C185.12 36.434 185.152 36.238 185.152 36.022C185.152 35.838 185.144 35.578 185.128 35.242C185.112 34.906 185.092 34.534 185.068 34.126C185.052 33.718 185.036 33.31 185.02 32.902C185.004 32.494 184.988 32.134 184.972 31.822H186.472ZM188.536 32.458C188.304 32.266 188.016 32.062 187.672 31.846C187.328 31.63 186.972 31.426 186.604 31.234C186.244 31.034 185.928 30.874 185.656 30.754L186.424 29.566C186.64 29.662 186.884 29.782 187.156 29.926C187.436 30.062 187.716 30.206 187.996 30.358C188.284 30.51 188.548 30.662 188.788 30.814C189.036 30.958 189.236 31.086 189.388 31.198L188.536 32.458ZM195.46 28.354C195.428 28.506 195.392 28.674 195.352 28.858C195.312 29.034 195.276 29.198 195.244 29.35C195.212 29.526 195.172 29.726 195.124 29.95C195.076 30.166 195.028 30.386 194.98 30.61C194.94 30.826 194.896 31.038 194.848 31.246C194.768 31.59 194.668 31.99 194.548 32.446C194.428 32.902 194.288 33.394 194.128 33.922C193.968 34.442 193.788 34.966 193.588 35.494C193.388 36.022 193.176 36.538 192.952 37.042C192.728 37.538 192.488 37.986 192.232 38.386L190.672 37.762C190.952 37.386 191.212 36.966 191.452 36.502C191.7 36.03 191.924 35.55 192.124 35.062C192.324 34.566 192.5 34.078 192.652 33.598C192.812 33.11 192.948 32.658 193.06 32.242C193.18 31.826 193.272 31.47 193.336 31.174C193.448 30.63 193.536 30.106 193.6 29.602C193.664 29.098 193.688 28.622 193.672 28.174L195.46 28.354ZM199.588 29.566C199.78 29.83 199.976 30.154 200.176 30.538C200.384 30.914 200.588 31.314 200.788 31.738C200.988 32.162 201.168 32.57 201.328 32.962C201.488 33.354 201.612 33.694 201.7 33.982L200.176 34.678C200.104 34.342 199.996 33.97 199.852 33.562C199.716 33.154 199.556 32.742 199.372 32.326C199.188 31.902 198.992 31.502 198.784 31.126C198.584 30.75 198.376 30.434 198.16 30.178L199.588 29.566ZM190.588 30.814C190.804 30.83 191.016 30.838 191.224 30.838C191.44 30.83 191.656 30.822 191.872 30.814C192.072 30.806 192.312 30.794 192.592 30.778C192.872 30.754 193.168 30.73 193.48 30.706C193.8 30.682 194.12 30.658 194.44 30.634C194.76 30.602 195.056 30.578 195.328 30.562C195.6 30.546 195.824 30.538 196 30.538C196.432 30.538 196.808 30.61 197.128 30.754C197.448 30.89 197.7 31.126 197.884 31.462C198.076 31.798 198.172 32.254 198.172 32.83C198.172 33.302 198.152 33.814 198.112 34.366C198.072 34.918 198 35.446 197.896 35.95C197.8 36.454 197.664 36.882 197.488 37.234C197.296 37.65 197.032 37.938 196.696 38.098C196.368 38.258 195.976 38.338 195.52 38.338C195.296 38.338 195.052 38.318 194.788 38.278C194.524 38.246 194.288 38.21 194.08 38.17L193.828 36.586C193.98 36.626 194.148 36.666 194.332 36.706C194.524 36.746 194.704 36.778 194.872 36.802C195.048 36.826 195.188 36.838 195.292 36.838C195.492 36.838 195.668 36.802 195.82 36.73C195.972 36.65 196.096 36.514 196.192 36.322C196.304 36.09 196.396 35.79 196.468 35.422C196.54 35.054 196.592 34.658 196.624 34.234C196.664 33.802 196.684 33.39 196.684 32.998C196.684 32.678 196.636 32.442 196.54 32.29C196.452 32.138 196.32 32.038 196.144 31.99C195.976 31.934 195.768 31.906 195.52 31.906C195.336 31.906 195.088 31.922 194.776 31.954C194.464 31.978 194.128 32.01 193.768 32.05C193.416 32.082 193.088 32.118 192.784 32.158C192.48 32.198 192.244 32.226 192.076 32.242C191.9 32.274 191.676 32.31 191.404 32.35C191.14 32.382 190.916 32.414 190.732 32.446L190.588 30.814ZM199.372 27.898C199.476 28.042 199.584 28.214 199.696 28.414C199.816 28.614 199.932 28.814 200.044 29.014C200.156 29.214 200.252 29.39 200.332 29.542L199.36 29.962C199.28 29.794 199.188 29.61 199.084 29.41C198.98 29.21 198.872 29.01 198.76 28.81C198.648 28.61 198.536 28.438 198.424 28.294L199.372 27.898ZM200.8 27.358C200.904 27.51 201.016 27.686 201.136 27.886C201.256 28.086 201.372 28.286 201.484 28.486C201.604 28.686 201.696 28.854 201.76 28.99L200.812 29.398C200.684 29.15 200.532 28.87 200.356 28.558C200.18 28.238 200.008 27.966 199.84 27.742L200.8 27.358ZM206.332 28.114C206.292 28.258 206.248 28.438 206.2 28.654C206.152 28.87 206.104 29.098 206.056 29.338C206.008 29.57 205.964 29.798 205.924 30.022C205.892 30.246 205.868 30.442 205.852 30.61C205.996 30.37 206.168 30.138 206.368 29.914C206.568 29.682 206.792 29.474 207.04 29.29C207.296 29.098 207.572 28.946 207.868 28.834C208.172 28.722 208.492 28.666 208.828 28.666C209.388 28.666 209.892 28.838 210.34 29.182C210.788 29.526 211.14 30.018 211.396 30.658C211.66 31.298 211.792 32.058 211.792 32.938C211.792 33.786 211.668 34.53 211.42 35.17C211.172 35.802 210.816 36.342 210.352 36.79C209.888 37.238 209.332 37.602 208.684 37.882C208.044 38.17 207.328 38.386 206.536 38.53L205.624 37.138C206.288 37.034 206.896 36.894 207.448 36.718C208.008 36.534 208.488 36.286 208.888 35.974C209.296 35.662 209.608 35.262 209.824 34.774C210.048 34.278 210.16 33.67 210.16 32.95C210.16 32.334 210.096 31.814 209.968 31.39C209.84 30.958 209.652 30.63 209.404 30.406C209.164 30.182 208.876 30.07 208.54 30.07C208.188 30.07 207.852 30.186 207.532 30.418C207.212 30.65 206.924 30.954 206.668 31.33C206.42 31.698 206.22 32.098 206.068 32.53C205.924 32.962 205.844 33.378 205.828 33.778C205.82 33.946 205.816 34.13 205.816 34.33C205.824 34.53 205.848 34.77 205.888 35.05L204.412 35.146C204.38 34.914 204.344 34.626 204.304 34.282C204.272 33.93 204.256 33.55 204.256 33.142C204.256 32.862 204.264 32.562 204.28 32.242C204.304 31.922 204.328 31.598 204.352 31.27C204.384 30.934 204.42 30.598 204.46 30.262C204.508 29.926 204.552 29.606 204.592 29.302C204.624 29.07 204.648 28.842 204.664 28.618C204.68 28.394 204.688 28.202 204.688 28.042L206.332 28.114Z" fill="#6B7280"/>
<path d="M264 12.75H270" stroke="#6B7280" stroke-width="1.5" stroke-linecap="round"/>
<path d="M266 8.75H270" stroke="#6B7280" stroke-width="1.5" stroke-linecap="round"/>
<mask id="path-16-inside-3_45_4402" fill="white">
<path d="M267 0.75C272.523 0.750056 277 5.22724 277 10.75C277 12.6258 276.482 14.3798 275.583 15.8799L276.708 18.8115C277.005 19.5844 276.288 20.3629 275.493 20.1299L272.337 19.2041C270.792 20.1813 268.963 20.75 267 20.75C261.477 20.75 257 16.2727 257 10.75C257 5.22721 261.477 0.75 267 0.75Z"/>
</mask>
<path d="M267 0.75L267 -0.75H267V0.75ZM277 10.75L278.5 10.75V10.75H277ZM275.583 15.8799L274.296 15.1091L273.921 15.7355L274.183 16.4173L275.583 15.8799ZM276.708 18.8115L275.308 19.3489L275.308 19.349L276.708 18.8115ZM275.493 20.1299L275.071 21.5692L275.071 21.5693L275.493 20.1299ZM272.337 19.2041L272.759 17.7647L272.108 17.5738L271.535 17.9365L272.337 19.2041ZM267 20.75V22.25H267L267 20.75ZM257 10.75H255.5V10.75L257 10.75ZM267 0.75L267 2.25C271.694 2.25005 275.5 6.05569 275.5 10.75H277H278.5C278.5 4.3988 273.351 -0.749936 267 -0.75L267 0.75ZM277 10.75L275.5 10.75C275.5 12.3455 275.06 13.8343 274.296 15.1091L275.583 15.8799L276.87 16.6507C277.903 14.9253 278.5 12.906 278.5 10.75L277 10.75ZM275.583 15.8799L274.183 16.4173L275.308 19.3489L276.708 18.8115L278.108 18.2741L276.983 15.3425L275.583 15.8799ZM276.708 18.8115L275.308 19.349C275.16 18.9639 275.517 18.5736 275.915 18.6905L275.493 20.1299L275.071 21.5693C277.058 22.1521 278.849 20.2049 278.108 18.2741L276.708 18.8115ZM275.493 20.1299L275.915 18.6905L272.759 17.7647L272.337 19.2041L271.915 20.6435L275.071 21.5692L275.493 20.1299ZM272.337 19.2041L271.535 17.9365C270.221 18.7674 268.669 19.25 267 19.25L267 20.75L267 22.25C269.257 22.25 271.363 21.5952 273.139 20.4717L272.337 19.2041ZM267 20.75V19.25C262.306 19.25 258.5 15.4443 258.5 10.75L257 10.75L255.5 10.75C255.5 17.1012 260.649 22.25 267 22.25V20.75ZM257 10.75H258.5C258.5 6.05564 262.306 2.25 267 2.25V0.75V-0.75C260.649 -0.75 255.5 4.39878 255.5 10.75H257Z" fill="#6B7280" mask="url(#path-16-inside-3_45_4402)"/>
<path d="M247.233 28.93C247.153 29.066 247.065 29.246 246.969 29.47C246.873 29.686 246.793 29.866 246.729 30.01C246.585 30.41 246.405 30.846 246.189 31.318C245.973 31.782 245.729 32.25 245.457 32.722C245.185 33.194 244.885 33.646 244.557 34.078C244.189 34.566 243.769 35.058 243.297 35.554C242.833 36.042 242.301 36.522 241.701 36.994C241.101 37.466 240.413 37.918 239.637 38.35L238.293 37.138C239.389 36.61 240.333 36.014 241.125 35.35C241.917 34.678 242.625 33.926 243.249 33.094C243.737 32.478 244.125 31.862 244.413 31.246C244.709 30.622 244.957 30.01 245.157 29.41C245.221 29.25 245.277 29.066 245.325 28.858C245.381 28.642 245.421 28.458 245.445 28.306L247.233 28.93ZM240.633 30.094C240.937 30.278 241.257 30.486 241.593 30.718C241.937 30.942 242.281 31.174 242.625 31.414C242.977 31.654 243.309 31.89 243.621 32.122C243.941 32.354 244.229 32.566 244.485 32.758C245.125 33.262 245.749 33.786 246.357 34.33C246.965 34.874 247.513 35.406 248.001 35.926L246.765 37.294C246.237 36.686 245.701 36.126 245.157 35.614C244.613 35.094 244.025 34.57 243.393 34.042C243.177 33.858 242.929 33.658 242.649 33.442C242.369 33.226 242.065 32.998 241.737 32.758C241.417 32.518 241.077 32.278 240.717 32.038C240.357 31.79 239.989 31.55 239.613 31.318L240.633 30.094ZM255.177 30.622C255.233 30.75 255.305 30.934 255.393 31.174C255.489 31.406 255.589 31.658 255.693 31.93C255.797 32.194 255.889 32.446 255.969 32.686C256.049 32.926 256.113 33.114 256.161 33.25L254.721 33.754C254.689 33.602 254.633 33.41 254.553 33.178C254.473 32.946 254.385 32.702 254.289 32.446C254.193 32.182 254.097 31.93 254.001 31.69C253.905 31.45 253.821 31.25 253.749 31.09L255.177 30.622ZM259.605 31.498C259.541 31.69 259.485 31.854 259.437 31.99C259.397 32.126 259.357 32.254 259.317 32.374C259.165 32.982 258.957 33.59 258.693 34.198C258.429 34.798 258.093 35.362 257.685 35.89C257.125 36.61 256.489 37.222 255.777 37.726C255.073 38.222 254.369 38.602 253.665 38.866L252.405 37.582C252.845 37.462 253.309 37.286 253.797 37.054C254.285 36.814 254.757 36.526 255.213 36.19C255.669 35.854 256.061 35.482 256.389 35.074C256.661 34.73 256.901 34.338 257.109 33.898C257.325 33.45 257.501 32.974 257.637 32.47C257.781 31.958 257.877 31.454 257.925 30.958L259.605 31.498ZM252.393 31.258C252.473 31.41 252.561 31.606 252.657 31.846C252.761 32.086 252.865 32.338 252.969 32.602C253.073 32.866 253.173 33.122 253.269 33.37C253.373 33.618 253.453 33.826 253.509 33.994L252.045 34.546C251.997 34.386 251.925 34.178 251.829 33.922C251.741 33.666 251.641 33.398 251.529 33.118C251.417 32.83 251.309 32.566 251.205 32.326C251.109 32.086 251.025 31.902 250.953 31.774L252.393 31.258ZM264.501 36.154C264.501 35.986 264.501 35.746 264.501 35.434C264.501 35.114 264.501 34.754 264.501 34.354C264.501 33.946 264.501 33.522 264.501 33.082C264.501 32.634 264.501 32.198 264.501 31.774C264.501 31.342 264.501 30.942 264.501 30.574C264.501 30.206 264.501 29.898 264.501 29.65C264.501 29.522 264.497 29.374 264.489 29.206C264.489 29.038 264.481 28.87 264.465 28.702C264.449 28.534 264.429 28.39 264.405 28.27H266.193C266.169 28.454 266.145 28.682 266.121 28.954C266.097 29.218 266.085 29.45 266.085 29.65C266.085 29.89 266.085 30.178 266.085 30.514C266.085 30.842 266.085 31.198 266.085 31.582C266.085 31.958 266.085 32.342 266.085 32.734C266.085 33.126 266.085 33.51 266.085 33.886C266.085 34.262 266.085 34.606 266.085 34.918C266.085 35.23 266.085 35.502 266.085 35.734C266.085 35.974 266.121 36.17 266.193 36.322C266.265 36.474 266.409 36.582 266.625 36.646C266.849 36.71 267.181 36.742 267.621 36.742C268.045 36.742 268.469 36.726 268.893 36.694C269.325 36.654 269.753 36.606 270.177 36.55C270.601 36.486 271.009 36.414 271.401 36.334L271.353 37.966C271.025 38.014 270.653 38.058 270.237 38.098C269.821 38.138 269.389 38.17 268.941 38.194C268.501 38.218 268.065 38.23 267.633 38.23C266.953 38.23 266.405 38.186 265.989 38.098C265.573 38.018 265.257 37.894 265.041 37.726C264.833 37.558 264.689 37.342 264.609 37.078C264.537 36.814 264.501 36.506 264.501 36.154ZM272.061 30.874C272.005 30.962 271.937 31.07 271.857 31.198C271.785 31.318 271.721 31.43 271.665 31.534C271.537 31.782 271.373 32.062 271.173 32.374C270.981 32.686 270.773 33.006 270.549 33.334C270.325 33.662 270.093 33.974 269.853 34.27C269.621 34.566 269.397 34.818 269.181 35.026L267.861 34.246C268.125 34.014 268.381 33.75 268.629 33.454C268.885 33.15 269.113 32.854 269.313 32.566C269.513 32.27 269.669 32.022 269.781 31.822C269.669 31.838 269.473 31.878 269.193 31.942C268.921 31.998 268.585 32.066 268.185 32.146C267.785 32.226 267.349 32.314 266.877 32.41C266.405 32.498 265.929 32.59 265.449 32.686C264.969 32.782 264.505 32.878 264.057 32.974C263.609 33.062 263.205 33.146 262.845 33.226C262.485 33.298 262.197 33.358 261.981 33.406L261.693 31.834C261.925 31.802 262.229 31.758 262.605 31.702C262.981 31.638 263.401 31.566 263.865 31.486C264.329 31.398 264.813 31.306 265.317 31.21C265.821 31.114 266.321 31.018 266.817 30.922C267.313 30.826 267.777 30.738 268.209 30.658C268.641 30.57 269.017 30.494 269.337 30.43C269.657 30.358 269.897 30.302 270.057 30.262C270.225 30.222 270.381 30.182 270.525 30.142C270.669 30.094 270.797 30.042 270.909 29.986L272.061 30.874ZM274.221 32.194C274.365 32.202 274.549 32.214 274.773 32.23C274.997 32.238 275.229 32.246 275.469 32.254C275.717 32.262 275.945 32.266 276.153 32.266C276.353 32.266 276.601 32.266 276.897 32.266C277.193 32.266 277.513 32.266 277.857 32.266C278.209 32.266 278.569 32.266 278.937 32.266C279.313 32.266 279.685 32.266 280.053 32.266C280.421 32.266 280.769 32.266 281.097 32.266C281.425 32.266 281.717 32.266 281.973 32.266C282.237 32.266 282.445 32.266 282.597 32.266C282.877 32.266 283.141 32.258 283.389 32.242C283.637 32.218 283.841 32.202 284.001 32.194V34.078C283.865 34.07 283.661 34.058 283.389 34.042C283.117 34.026 282.853 34.018 282.597 34.018C282.445 34.018 282.237 34.018 281.973 34.018C281.709 34.018 281.413 34.018 281.085 34.018C280.757 34.018 280.409 34.018 280.041 34.018C279.681 34.018 279.313 34.018 278.937 34.018C278.561 34.018 278.197 34.018 277.845 34.018C277.501 34.018 277.181 34.018 276.885 34.018C276.597 34.018 276.353 34.018 276.153 34.018C275.809 34.018 275.457 34.026 275.097 34.042C274.737 34.05 274.445 34.062 274.221 34.078V32.194ZM293.643 28.534C293.755 28.702 293.875 28.898 294.003 29.122C294.139 29.338 294.271 29.558 294.399 29.782C294.527 29.998 294.639 30.202 294.735 30.394L293.691 30.838C293.571 30.582 293.459 30.354 293.355 30.154C293.251 29.946 293.139 29.746 293.019 29.554C292.907 29.354 292.779 29.154 292.635 28.954L293.643 28.534ZM295.287 27.958C295.415 28.11 295.547 28.294 295.683 28.51C295.819 28.726 295.951 28.942 296.079 29.158C296.207 29.374 296.319 29.57 296.415 29.746L295.395 30.202C295.267 29.954 295.143 29.73 295.023 29.53C294.911 29.33 294.795 29.138 294.675 28.954C294.555 28.77 294.419 28.578 294.267 28.378L295.287 27.958ZM288.423 28.306C288.623 28.41 288.847 28.538 289.095 28.69C289.343 28.842 289.595 29.002 289.851 29.17C290.107 29.33 290.351 29.486 290.583 29.638C290.815 29.782 291.007 29.91 291.159 30.022L290.271 31.342C290.103 31.23 289.903 31.098 289.671 30.946C289.447 30.794 289.207 30.638 288.951 30.478C288.703 30.318 288.455 30.166 288.207 30.022C287.967 29.87 287.751 29.738 287.559 29.626L288.423 28.306ZM286.203 36.826C286.651 36.746 287.107 36.646 287.571 36.526C288.035 36.406 288.495 36.262 288.951 36.094C289.407 35.918 289.851 35.71 290.283 35.47C290.963 35.086 291.595 34.654 292.179 34.174C292.771 33.694 293.303 33.186 293.775 32.65C294.247 32.106 294.639 31.546 294.951 30.97L295.875 32.602C295.323 33.434 294.635 34.222 293.811 34.966C292.995 35.702 292.095 36.354 291.111 36.922C290.703 37.146 290.255 37.362 289.767 37.57C289.279 37.77 288.799 37.942 288.327 38.086C287.863 38.23 287.455 38.334 287.103 38.398L286.203 36.826ZM286.575 31.042C286.775 31.146 287.003 31.274 287.259 31.426C287.515 31.578 287.771 31.734 288.027 31.894C288.283 32.046 288.523 32.198 288.747 32.35C288.979 32.494 289.171 32.622 289.323 32.734L288.447 34.078C288.271 33.958 288.067 33.822 287.835 33.67C287.611 33.518 287.371 33.362 287.115 33.202C286.867 33.042 286.619 32.89 286.371 32.746C286.131 32.594 285.911 32.466 285.711 32.362L286.575 31.042Z" fill="#6B7280"/>
<mask id="path-19-inside-4_45_4402" fill="white">
<path d="M344 0.75C346.762 0.750257 349 2.98874 349 5.75C349 6.79087 348.681 7.7572 348.137 8.55762C351.587 10.0594 354 13.4973 354 17.5C353.999 19.2948 352.544 20.75 350.75 20.75H337.25C335.456 20.75 334.001 19.2948 334 17.5C334 13.4977 336.413 10.0597 339.862 8.55762C339.318 7.7573 339 6.79067 339 5.75C339 2.98859 341.239 0.75 344 0.75Z"/>
</mask>
<path d="M344 0.75L344.001 -0.75H344V0.75ZM349 5.75L350.5 5.75001V5.75H349ZM348.137 8.55762L346.897 7.71423L345.879 9.21066L347.538 9.93294L348.137 8.55762ZM354 17.5L355.5 17.5001V17.5H354ZM334 17.5H332.5V17.5001L334 17.5ZM339.862 8.55762L340.461 9.93287L342.119 9.21056L341.102 7.71437L339.862 8.55762ZM339 5.75H337.5V5.75001L339 5.75ZM344 0.75L344 2.25C345.933 2.25018 347.5 3.81695 347.5 5.75H349H350.5C350.5 2.16054 347.59 -0.749666 344.001 -0.75L344 0.75ZM349 5.75L347.5 5.74999C347.5 6.48057 347.277 7.15458 346.897 7.71423L348.137 8.55762L349.378 9.401C350.086 8.35983 350.5 7.10117 350.5 5.75001L349 5.75ZM348.137 8.55762L347.538 9.93294C350.461 11.2052 352.5 14.1158 352.5 17.5H354H355.5C355.5 12.8788 352.713 8.91365 348.736 7.18229L348.137 8.55762ZM354 17.5L352.5 17.4999C352.499 18.4665 351.716 19.25 350.75 19.25V20.75V22.25C353.373 22.25 355.499 20.1231 355.5 17.5001L354 17.5ZM350.75 20.75V19.25H337.25V20.75V22.25H350.75V20.75ZM337.25 20.75V19.25C336.284 19.25 335.501 18.4665 335.5 17.4999L334 17.5L332.5 17.5001C332.501 20.1231 334.627 22.25 337.25 22.25V20.75ZM334 17.5H335.5C335.5 14.1161 337.539 11.2053 340.461 9.93287L339.862 8.55762L339.263 7.18236C335.286 8.91402 332.5 12.8793 332.5 17.5H334ZM339.862 8.55762L341.102 7.71437C340.722 7.15547 340.5 6.48123 340.5 5.74999L339 5.75L337.5 5.75001C337.5 7.10011 337.913 8.35912 338.621 9.40086L339.862 8.55762ZM339 5.75H340.5C340.5 3.81703 342.068 2.25 344 2.25V0.75V-0.75C340.411 -0.75 337.5 2.16014 337.5 5.75H339Z" fill="#6B7280" mask="url(#path-19-inside-4_45_4402)"/>
<path d="M325.553 30.19C325.465 30.286 325.385 30.374 325.313 30.454C325.249 30.534 325.193 30.614 325.145 30.694C324.905 31.078 324.621 31.494 324.293 31.942C323.965 32.39 323.601 32.842 323.201 33.298C322.801 33.754 322.377 34.194 321.929 34.618C321.489 35.042 321.033 35.426 320.561 35.77L319.373 34.654C319.773 34.382 320.149 34.082 320.501 33.754C320.861 33.418 321.193 33.078 321.497 32.734C321.809 32.39 322.085 32.054 322.325 31.726C322.565 31.398 322.765 31.098 322.925 30.826C322.765 30.826 322.553 30.826 322.289 30.826C322.025 30.826 321.717 30.826 321.365 30.826C321.021 30.826 320.657 30.826 320.273 30.826C319.889 30.826 319.505 30.826 319.121 30.826C318.745 30.826 318.385 30.826 318.041 30.826C317.705 30.826 317.409 30.826 317.153 30.826C316.905 30.826 316.713 30.826 316.577 30.826C316.417 30.826 316.245 30.83 316.061 30.838C315.885 30.846 315.717 30.858 315.557 30.874C315.397 30.89 315.277 30.902 315.197 30.91V29.23C315.301 29.238 315.433 29.254 315.593 29.278C315.761 29.302 315.933 29.318 316.109 29.326C316.285 29.334 316.441 29.338 316.577 29.338C316.681 29.338 316.857 29.338 317.105 29.338C317.361 29.338 317.661 29.338 318.005 29.338C318.349 29.338 318.717 29.338 319.109 29.338C319.509 29.338 319.909 29.338 320.309 29.338C320.717 29.338 321.109 29.338 321.485 29.338C321.861 29.338 322.197 29.338 322.493 29.338C322.797 29.338 323.045 29.338 323.237 29.338C323.709 29.338 324.081 29.294 324.353 29.206L325.553 30.19ZM319.217 35.938C319.041 35.762 318.837 35.57 318.605 35.362C318.381 35.146 318.145 34.93 317.897 34.714C317.657 34.498 317.421 34.298 317.189 34.114C316.965 33.922 316.761 33.762 316.577 33.634L317.849 32.614C318.009 32.734 318.197 32.882 318.413 33.058C318.637 33.234 318.873 33.426 319.121 33.634C319.369 33.842 319.621 34.058 319.877 34.282C320.133 34.506 320.377 34.726 320.609 34.942C320.873 35.198 321.145 35.474 321.425 35.77C321.713 36.066 321.985 36.354 322.241 36.634C322.505 36.914 322.729 37.174 322.913 37.414L321.509 38.53C321.341 38.306 321.125 38.046 320.861 37.75C320.605 37.446 320.333 37.134 320.045 36.814C319.757 36.494 319.481 36.202 319.217 35.938ZM326.861 33.082C327.941 32.802 328.917 32.478 329.789 32.11C330.669 31.734 331.441 31.342 332.105 30.934C332.521 30.678 332.937 30.386 333.353 30.058C333.777 29.722 334.173 29.378 334.541 29.026C334.917 28.674 335.233 28.338 335.489 28.018L336.785 29.254C336.417 29.614 336.013 29.978 335.573 30.346C335.141 30.714 334.689 31.066 334.217 31.402C333.745 31.738 333.277 32.046 332.813 32.326C332.357 32.59 331.845 32.862 331.277 33.142C330.717 33.422 330.125 33.686 329.501 33.934C328.877 34.182 328.249 34.402 327.617 34.594L326.861 33.082ZM331.853 31.702L333.557 31.306V36.706C333.557 36.882 333.561 37.074 333.569 37.282C333.577 37.49 333.589 37.682 333.605 37.858C333.621 38.042 333.641 38.182 333.665 38.278H331.769C331.785 38.182 331.797 38.042 331.805 37.858C331.821 37.682 331.833 37.49 331.841 37.282C331.849 37.074 331.853 36.882 331.853 36.706V31.702ZM346.793 30.406C346.793 30.614 346.865 30.794 347.009 30.946C347.161 31.09 347.341 31.162 347.549 31.162C347.765 31.162 347.945 31.09 348.089 30.946C348.241 30.794 348.317 30.614 348.317 30.406C348.317 30.19 348.241 30.01 348.089 29.866C347.945 29.714 347.765 29.638 347.549 29.638C347.341 29.638 347.161 29.714 347.009 29.866C346.865 30.01 346.793 30.19 346.793 30.406ZM346.001 30.406C346.001 30.11 346.069 29.846 346.205 29.614C346.349 29.382 346.537 29.198 346.769 29.062C347.001 28.918 347.261 28.846 347.549 28.846C347.845 28.846 348.109 28.918 348.341 29.062C348.573 29.198 348.757 29.382 348.893 29.614C349.037 29.846 349.109 30.11 349.109 30.406C349.109 30.686 349.037 30.946 348.893 31.186C348.757 31.418 348.573 31.606 348.341 31.75C348.109 31.886 347.845 31.954 347.549 31.954C347.261 31.954 347.001 31.886 346.769 31.75C346.537 31.606 346.349 31.418 346.205 31.186C346.069 30.946 346.001 30.686 346.001 30.406ZM338.537 34.33C338.721 34.178 338.885 34.034 339.029 33.898C339.173 33.762 339.341 33.602 339.533 33.418C339.669 33.274 339.825 33.102 340.001 32.902C340.177 32.702 340.365 32.478 340.565 32.23C340.773 31.982 340.985 31.73 341.201 31.474C341.417 31.21 341.629 30.954 341.837 30.706C342.189 30.282 342.553 30.05 342.929 30.01C343.305 29.962 343.725 30.162 344.189 30.61C344.461 30.858 344.737 31.126 345.017 31.414C345.305 31.702 345.585 31.99 345.857 32.278C346.137 32.566 346.397 32.842 346.637 33.106C346.909 33.386 347.213 33.71 347.549 34.078C347.893 34.446 348.241 34.822 348.593 35.206C348.953 35.59 349.285 35.946 349.589 36.274L348.269 37.69C348.005 37.354 347.721 37.002 347.417 36.634C347.113 36.266 346.817 35.91 346.529 35.566C346.241 35.214 345.977 34.902 345.737 34.63C345.569 34.422 345.377 34.202 345.161 33.97C344.953 33.73 344.745 33.494 344.537 33.262C344.329 33.03 344.137 32.822 343.961 32.638C343.785 32.454 343.645 32.306 343.541 32.194C343.341 32.002 343.169 31.914 343.025 31.93C342.889 31.938 342.733 32.05 342.557 32.266C342.445 32.418 342.309 32.598 342.149 32.806C341.989 33.014 341.825 33.234 341.657 33.466C341.489 33.698 341.325 33.922 341.165 34.138C341.013 34.354 340.877 34.542 340.757 34.702C340.621 34.894 340.485 35.09 340.349 35.29C340.213 35.482 340.089 35.658 339.977 35.818L338.537 34.33ZM351.221 32.194C351.365 32.202 351.549 32.214 351.773 32.23C351.997 32.238 352.229 32.246 352.469 32.254C352.717 32.262 352.945 32.266 353.153 32.266C353.353 32.266 353.601 32.266 353.897 32.266C354.193 32.266 354.513 32.266 354.857 32.266C355.209 32.266 355.569 32.266 355.937 32.266C356.313 32.266 356.685 32.266 357.053 32.266C357.421 32.266 357.769 32.266 358.097 32.266C358.425 32.266 358.717 32.266 358.973 32.266C359.237 32.266 359.445 32.266 359.597 32.266C359.877 32.266 360.141 32.258 360.389 32.242C360.637 32.218 360.841 32.202 361.001 32.194V34.078C360.865 34.07 360.661 34.058 360.389 34.042C360.117 34.026 359.853 34.018 359.597 34.018C359.445 34.018 359.237 34.018 358.973 34.018C358.709 34.018 358.413 34.018 358.085 34.018C357.757 34.018 357.409 34.018 357.041 34.018C356.681 34.018 356.313 34.018 355.937 34.018C355.561 34.018 355.197 34.018 354.845 34.018C354.501 34.018 354.181 34.018 353.885 34.018C353.597 34.018 353.353 34.018 353.153 34.018C352.809 34.018 352.457 34.026 352.097 34.042C351.737 34.05 351.445 34.062 351.221 34.078V32.194ZM370.643 28.534C370.755 28.702 370.875 28.898 371.003 29.122C371.139 29.338 371.271 29.558 371.399 29.782C371.527 29.998 371.639 30.202 371.735 30.394L370.691 30.838C370.571 30.582 370.459 30.354 370.355 30.154C370.251 29.946 370.139 29.746 370.019 29.554C369.907 29.354 369.779 29.154 369.635 28.954L370.643 28.534ZM372.287 27.958C372.415 28.11 372.547 28.294 372.683 28.51C372.819 28.726 372.951 28.942 373.079 29.158C373.207 29.374 373.319 29.57 373.415 29.746L372.395 30.202C372.267 29.954 372.143 29.73 372.023 29.53C371.911 29.33 371.795 29.138 371.675 28.954C371.555 28.77 371.419 28.578 371.267 28.378L372.287 27.958ZM365.423 28.306C365.623 28.41 365.847 28.538 366.095 28.69C366.343 28.842 366.595 29.002 366.851 29.17C367.107 29.33 367.351 29.486 367.583 29.638C367.815 29.782 368.007 29.91 368.159 30.022L367.271 31.342C367.103 31.23 366.903 31.098 366.671 30.946C366.447 30.794 366.207 30.638 365.951 30.478C365.703 30.318 365.455 30.166 365.207 30.022C364.967 29.87 364.751 29.738 364.559 29.626L365.423 28.306ZM363.203 36.826C363.651 36.746 364.107 36.646 364.571 36.526C365.035 36.406 365.495 36.262 365.951 36.094C366.407 35.918 366.851 35.71 367.283 35.47C367.963 35.086 368.595 34.654 369.179 34.174C369.771 33.694 370.303 33.186 370.775 32.65C371.247 32.106 371.639 31.546 371.951 30.97L372.875 32.602C372.323 33.434 371.635 34.222 370.811 34.966C369.995 35.702 369.095 36.354 368.111 36.922C367.703 37.146 367.255 37.362 366.767 37.57C366.279 37.77 365.799 37.942 365.327 38.086C364.863 38.23 364.455 38.334 364.103 38.398L363.203 36.826ZM363.575 31.042C363.775 31.146 364.003 31.274 364.259 31.426C364.515 31.578 364.771 31.734 365.027 31.894C365.283 32.046 365.523 32.198 365.747 32.35C365.979 32.494 366.171 32.622 366.323 32.734L365.447 34.078C365.271 33.958 365.067 33.822 364.835 33.67C364.611 33.518 364.371 33.362 364.115 33.202C363.867 33.042 363.619 32.89 363.371 32.746C363.131 32.594 362.911 32.466 362.711 32.362L363.575 31.042Z" fill="#6B7280"/>
</svg>
