<svg width="380" height="40" viewBox="0 0 380 40" fill="none" xmlns="http://www.w3.org/2000/svg">
<path d="M36 0.75C36.7601 0.75 37.4889 0.980511 38.4375 1.52441C39.4057 2.07957 40.5381 2.92149 42.1172 4.09766C42.972 4.73433 43.5774 5.18616 44.0283 5.58203C44.4709 5.97057 44.7226 6.26996 44.8887 6.58203C45.2301 7.2238 45.25 7.9581 45.25 9.95117V11.4424C45.25 13.4841 45.248 14.9279 45.0762 16.0215C44.9099 17.0797 44.5988 17.7053 44.0479 18.1768C43.48 18.6627 42.6979 18.9493 41.4004 19.0986C40.0918 19.2492 38.3751 19.25 36 19.25C33.6249 19.25 31.9082 19.2492 30.5996 19.0986C29.3021 18.9493 28.52 18.6627 27.9521 18.1768C27.4012 17.7053 27.0901 17.0797 26.9238 16.0215C26.752 14.9279 26.75 13.4841 26.75 11.4424V9.95117C26.75 7.9581 26.7699 7.2238 27.1113 6.58203C27.2774 6.26996 27.5291 5.97057 27.9717 5.58203C28.4226 5.18616 29.028 4.73433 29.8828 4.09766C31.4619 2.92149 32.5943 2.07957 33.5625 1.52441C34.5111 0.980511 35.2399 0.75 36 0.75Z" stroke="#6B7280" stroke-width="1.5"/>
<rect x="39.25" y="14.25" width="6.5" height="6.5" rx="3.25" transform="rotate(-180 39.25 14.25)" stroke="#6B7280" stroke-width="1.5"/>
<path d="M25.2496 27.388C25.2416 27.444 25.2256 27.536 25.2016 27.664C25.1856 27.792 25.1696 27.928 25.1536 28.072C25.1456 28.216 25.1416 28.336 25.1416 28.432C25.1416 28.672 25.1416 28.936 25.1416 29.224C25.1416 29.512 25.1416 29.8 25.1416 30.088C25.1416 30.368 25.1416 30.624 25.1416 30.856C25.1416 31.016 25.1416 31.24 25.1416 31.528C25.1416 31.816 25.1416 32.14 25.1416 32.5C25.1416 32.86 25.1416 33.236 25.1416 33.628C25.1416 34.012 25.1416 34.388 25.1416 34.756C25.1416 35.116 25.1416 35.444 25.1416 35.74C25.1416 36.028 25.1416 36.256 25.1416 36.424C25.1416 36.768 25.0376 37.04 24.8296 37.24C24.6296 37.448 24.3136 37.552 23.8816 37.552C23.6656 37.552 23.4456 37.548 23.2216 37.54C22.9976 37.532 22.7776 37.52 22.5616 37.504C22.3456 37.488 22.1376 37.468 21.9376 37.444L21.7816 35.956C22.0456 36.004 22.2976 36.04 22.5376 36.064C22.7776 36.088 22.9736 36.1 23.1256 36.1C23.2776 36.1 23.3856 36.068 23.4496 36.004C23.5136 35.932 23.5496 35.82 23.5576 35.668C23.5576 35.596 23.5576 35.44 23.5576 35.2C23.5656 34.96 23.5696 34.676 23.5696 34.348C23.5696 34.02 23.5696 33.672 23.5696 33.304C23.5696 32.936 23.5696 32.584 23.5696 32.248C23.5696 31.912 23.5696 31.62 23.5696 31.372C23.5696 31.124 23.5696 30.952 23.5696 30.856C23.5696 30.712 23.5696 30.496 23.5696 30.208C23.5696 29.912 23.5696 29.6 23.5696 29.272C23.5696 28.944 23.5696 28.664 23.5696 28.432C23.5696 28.272 23.5576 28.084 23.5336 27.868C23.5096 27.652 23.4896 27.492 23.4736 27.388H25.2496ZM19.3696 29.308C19.5456 29.324 19.7336 29.344 19.9336 29.368C20.1416 29.384 20.3376 29.392 20.5216 29.392C20.6256 29.392 20.8216 29.392 21.1096 29.392C21.4056 29.392 21.7536 29.392 22.1536 29.392C22.5616 29.392 23.0016 29.392 23.4736 29.392C23.9456 29.392 24.4176 29.392 24.8896 29.392C25.3616 29.392 25.8056 29.392 26.2216 29.392C26.6376 29.392 26.9936 29.392 27.2896 29.392C27.5936 29.392 27.8056 29.392 27.9256 29.392C28.0936 29.392 28.2936 29.384 28.5256 29.368C28.7576 29.352 28.9536 29.332 29.1136 29.308V30.88C28.9296 30.864 28.7296 30.856 28.5136 30.856C28.2976 30.848 28.1056 30.844 27.9376 30.844C27.8176 30.844 27.6096 30.844 27.3136 30.844C27.0176 30.844 26.6616 30.844 26.2456 30.844C25.8296 30.844 25.3856 30.844 24.9136 30.844C24.4416 30.844 23.9696 30.844 23.4976 30.844C23.0336 30.844 22.5936 30.844 22.1776 30.844C21.7696 30.844 21.4216 30.844 21.1336 30.844C20.8456 30.844 20.6416 30.844 20.5216 30.844C20.3456 30.844 20.1496 30.848 19.9336 30.856C19.7256 30.864 19.5376 30.876 19.3696 30.892V29.308ZM22.4296 32.56C22.2856 32.824 22.1176 33.112 21.9256 33.424C21.7336 33.736 21.5256 34.048 21.3016 34.36C21.0856 34.672 20.8736 34.964 20.6656 35.236C20.4576 35.5 20.2736 35.72 20.1136 35.896L18.8056 35.008C19.0056 34.824 19.2096 34.608 19.4176 34.36C19.6336 34.104 19.8416 33.836 20.0416 33.556C20.2496 33.276 20.4376 32.996 20.6056 32.716C20.7816 32.436 20.9336 32.168 21.0616 31.912L22.4296 32.56ZM27.5776 31.876C27.7296 32.068 27.8976 32.296 28.0816 32.56C28.2736 32.824 28.4656 33.108 28.6576 33.412C28.8496 33.708 29.0296 34 29.1976 34.288C29.3656 34.568 29.5096 34.816 29.6296 35.032L28.2256 35.8C28.0976 35.544 27.9496 35.268 27.7816 34.972C27.6216 34.676 27.4536 34.38 27.2776 34.084C27.1016 33.788 26.9256 33.512 26.7496 33.256C26.5736 32.992 26.4136 32.768 26.2696 32.584L27.5776 31.876ZM31.2856 31.444C31.4296 31.452 31.6136 31.464 31.8376 31.48C32.0616 31.488 32.2936 31.496 32.5336 31.504C32.7816 31.512 33.0096 31.516 33.2176 31.516C33.4176 31.516 33.6656 31.516 33.9616 31.516C34.2576 31.516 34.5776 31.516 34.9216 31.516C35.2736 31.516 35.6336 31.516 36.0016 31.516C36.3776 31.516 36.7496 31.516 37.1176 31.516C37.4856 31.516 37.8336 31.516 38.1616 31.516C38.4896 31.516 38.7816 31.516 39.0376 31.516C39.3016 31.516 39.5096 31.516 39.6616 31.516C39.9416 31.516 40.2056 31.508 40.4536 31.492C40.7016 31.468 40.9056 31.452 41.0656 31.444V33.328C40.9296 33.32 40.7256 33.308 40.4536 33.292C40.1816 33.276 39.9176 33.268 39.6616 33.268C39.5096 33.268 39.3016 33.268 39.0376 33.268C38.7736 33.268 38.4776 33.268 38.1496 33.268C37.8216 33.268 37.4736 33.268 37.1056 33.268C36.7456 33.268 36.3776 33.268 36.0016 33.268C35.6256 33.268 35.2616 33.268 34.9096 33.268C34.5656 33.268 34.2456 33.268 33.9496 33.268C33.6616 33.268 33.4176 33.268 33.2176 33.268C32.8736 33.268 32.5216 33.276 32.1616 33.292C31.8016 33.3 31.5096 33.312 31.2856 33.328V31.444ZM48.4784 27.952C48.3984 28.128 48.3144 28.328 48.2264 28.552C48.1384 28.768 48.0504 29.012 47.9624 29.284C47.8904 29.508 47.7984 29.796 47.6864 30.148C47.5744 30.492 47.4504 30.872 47.3144 31.288C47.1784 31.696 47.0344 32.12 46.8824 32.56C46.7384 32.992 46.5984 33.412 46.4624 33.82C46.3264 34.228 46.1984 34.6 46.0784 34.936C45.9584 35.264 45.8544 35.532 45.7664 35.74L43.9904 35.8C44.1024 35.544 44.2264 35.232 44.3624 34.864C44.4984 34.496 44.6424 34.096 44.7944 33.664C44.9464 33.224 45.0944 32.776 45.2384 32.32C45.3904 31.864 45.5304 31.424 45.6584 31C45.7944 30.576 45.9144 30.184 46.0184 29.824C46.1304 29.464 46.2184 29.172 46.2824 28.948C46.3624 28.636 46.4224 28.38 46.4624 28.18C46.5104 27.972 46.5464 27.764 46.5704 27.556L48.4784 27.952ZM50.6264 31.828C50.8424 32.148 51.0744 32.524 51.3224 32.956C51.5704 33.388 51.8144 33.84 52.0544 34.312C52.3024 34.776 52.5304 35.224 52.7384 35.656C52.9464 36.088 53.1184 36.476 53.2544 36.82L51.6344 37.54C51.4984 37.172 51.3304 36.756 51.1304 36.292C50.9384 35.828 50.7264 35.356 50.4944 34.876C50.2704 34.396 50.0384 33.944 49.7984 33.52C49.5664 33.088 49.3424 32.728 49.1264 32.44L50.6264 31.828ZM43.8824 35.272C44.1544 35.256 44.4824 35.236 44.8664 35.212C45.2584 35.18 45.6784 35.144 46.1264 35.104C46.5744 35.056 47.0304 35.008 47.4944 34.96C47.9664 34.912 48.4264 34.864 48.8744 34.816C49.3304 34.76 49.7544 34.708 50.1464 34.66C50.5384 34.612 50.8704 34.568 51.1424 34.528L51.5024 36.064C51.2064 36.104 50.8504 36.148 50.4344 36.196C50.0264 36.244 49.5864 36.296 49.1144 36.352C48.6424 36.4 48.1624 36.452 47.6744 36.508C47.1864 36.564 46.7104 36.616 46.2464 36.664C45.7824 36.712 45.3544 36.756 44.9624 36.796C44.5704 36.828 44.2384 36.86 43.9664 36.892C43.8144 36.908 43.6344 36.932 43.4264 36.964C43.2264 36.988 43.0304 37.012 42.8384 37.036L42.5624 35.284C42.7624 35.284 42.9824 35.284 43.2224 35.284C43.4704 35.284 43.6904 35.28 43.8824 35.272Z" fill="#6B7280"/>
<circle cx="112.929" cy="8.72358" r="8.72358" fill="#21B2AA"/>
<path d="M117.184 14.8267L121.232 20" stroke="#21B2AA" stroke-width="1.5" stroke-linecap="round"/>
<rect x="111.205" y="4" width="5" height="3" rx="1" stroke="white" stroke-width="1.5"/>
<rect x="109.205" y="10" width="7" height="3" rx="1" stroke="white" stroke-width="1.5"/>
<path d="M101.084 28.48C101.036 28.344 100.98 28.176 100.916 27.976C100.852 27.776 100.78 27.576 100.7 27.376L102.32 27.184C102.384 27.496 102.456 27.808 102.536 28.12C102.616 28.424 102.704 28.724 102.8 29.02C102.896 29.308 102.992 29.58 103.088 29.836C103.272 30.332 103.488 30.82 103.736 31.3C103.992 31.772 104.216 32.144 104.408 32.416C104.512 32.568 104.616 32.712 104.72 32.848C104.832 32.976 104.944 33.1 105.056 33.22L104.312 34.3C104.144 34.268 103.932 34.236 103.676 34.204C103.42 34.164 103.14 34.128 102.836 34.096C102.54 34.064 102.24 34.032 101.936 34C101.64 33.968 101.368 33.944 101.12 33.928L101.24 32.656C101.44 32.672 101.652 32.692 101.876 32.716C102.1 32.732 102.308 32.748 102.5 32.764C102.7 32.78 102.864 32.792 102.992 32.8C102.848 32.568 102.696 32.304 102.536 32.008C102.376 31.712 102.22 31.404 102.068 31.084C101.916 30.756 101.776 30.428 101.648 30.1C101.52 29.764 101.408 29.46 101.312 29.188C101.224 28.916 101.148 28.68 101.084 28.48ZM96.716 29.044C97.46 29.132 98.16 29.192 98.816 29.224C99.472 29.256 100.084 29.264 100.652 29.248C101.22 29.232 101.74 29.196 102.212 29.14C102.58 29.092 102.936 29.04 103.28 28.984C103.632 28.928 103.976 28.86 104.312 28.78C104.656 28.7 104.98 28.612 105.284 28.516L105.476 30.028C105.212 30.1 104.924 30.168 104.612 30.232C104.308 30.296 103.992 30.356 103.664 30.412C103.336 30.46 103.012 30.504 102.692 30.544C101.884 30.632 100.996 30.684 100.028 30.7C99.06 30.716 97.964 30.676 96.74 30.58L96.716 29.044ZM99.116 33.136C98.932 33.416 98.788 33.692 98.684 33.964C98.58 34.228 98.528 34.492 98.528 34.756C98.528 35.26 98.748 35.628 99.188 35.86C99.628 36.084 100.256 36.196 101.072 36.196C101.728 36.196 102.32 36.168 102.848 36.112C103.384 36.056 103.864 35.988 104.288 35.908L104.204 37.42C103.868 37.484 103.428 37.548 102.884 37.612C102.348 37.676 101.712 37.708 100.976 37.708C100.168 37.7 99.464 37.592 98.864 37.384C98.264 37.184 97.8 36.884 97.472 36.484C97.144 36.076 96.98 35.588 96.98 35.02C96.98 34.652 97.032 34.292 97.136 33.94C97.248 33.58 97.408 33.196 97.616 32.788L99.116 33.136ZM112.46 27.604C112.428 27.756 112.392 27.924 112.352 28.108C112.312 28.284 112.276 28.448 112.244 28.6C112.212 28.776 112.172 28.976 112.124 29.2C112.076 29.416 112.028 29.636 111.98 29.86C111.94 30.076 111.896 30.288 111.848 30.496C111.768 30.84 111.668 31.24 111.548 31.696C111.428 32.152 111.288 32.644 111.128 33.172C110.968 33.692 110.788 34.216 110.588 34.744C110.388 35.272 110.176 35.788 109.952 36.292C109.728 36.788 109.488 37.236 109.232 37.636L107.672 37.012C107.952 36.636 108.212 36.216 108.452 35.752C108.7 35.28 108.924 34.8 109.124 34.312C109.324 33.816 109.5 33.328 109.652 32.848C109.812 32.36 109.948 31.908 110.06 31.492C110.18 31.076 110.272 30.72 110.336 30.424C110.448 29.88 110.536 29.356 110.6 28.852C110.664 28.348 110.688 27.872 110.672 27.424L112.46 27.604ZM116.588 28.816C116.78 29.08 116.976 29.404 117.176 29.788C117.384 30.164 117.588 30.564 117.788 30.988C117.988 31.412 118.168 31.82 118.328 32.212C118.488 32.604 118.612 32.944 118.7 33.232L117.176 33.928C117.104 33.592 116.996 33.22 116.852 32.812C116.716 32.404 116.556 31.992 116.372 31.576C116.188 31.152 115.992 30.752 115.784 30.376C115.584 30 115.376 29.684 115.16 29.428L116.588 28.816ZM107.588 30.064C107.804 30.08 108.016 30.088 108.224 30.088C108.44 30.08 108.656 30.072 108.872 30.064C109.072 30.056 109.312 30.044 109.592 30.028C109.872 30.004 110.168 29.98 110.48 29.956C110.8 29.932 111.12 29.908 111.44 29.884C111.76 29.852 112.056 29.828 112.328 29.812C112.6 29.796 112.824 29.788 113 29.788C113.432 29.788 113.808 29.86 114.128 30.004C114.448 30.14 114.7 30.376 114.884 30.712C115.076 31.048 115.172 31.504 115.172 32.08C115.172 32.552 115.152 33.064 115.112 33.616C115.072 34.168 115 34.696 114.896 35.2C114.8 35.704 114.664 36.132 114.488 36.484C114.296 36.9 114.032 37.188 113.696 37.348C113.368 37.508 112.976 37.588 112.52 37.588C112.296 37.588 112.052 37.568 111.788 37.528C111.524 37.496 111.288 37.46 111.08 37.42L110.828 35.836C110.98 35.876 111.148 35.916 111.332 35.956C111.524 35.996 111.704 36.028 111.872 36.052C112.048 36.076 112.188 36.088 112.292 36.088C112.492 36.088 112.668 36.052 112.82 35.98C112.972 35.9 113.096 35.764 113.192 35.572C113.304 35.34 113.396 35.04 113.468 34.672C113.54 34.304 113.592 33.908 113.624 33.484C113.664 33.052 113.684 32.64 113.684 32.248C113.684 31.928 113.636 31.692 113.54 31.54C113.452 31.388 113.32 31.288 113.144 31.24C112.976 31.184 112.768 31.156 112.52 31.156C112.336 31.156 112.088 31.172 111.776 31.204C111.464 31.228 111.128 31.26 110.768 31.3C110.416 31.332 110.088 31.368 109.784 31.408C109.48 31.448 109.244 31.476 109.076 31.492C108.9 31.524 108.676 31.56 108.404 31.6C108.14 31.632 107.916 31.664 107.732 31.696L107.588 30.064ZM116.372 27.148C116.476 27.292 116.584 27.464 116.696 27.664C116.816 27.864 116.932 28.064 117.044 28.264C117.156 28.464 117.252 28.64 117.332 28.792L116.36 29.212C116.28 29.044 116.188 28.86 116.084 28.66C115.98 28.46 115.872 28.26 115.76 28.06C115.648 27.86 115.536 27.688 115.424 27.544L116.372 27.148ZM117.8 26.608C117.904 26.76 118.016 26.936 118.136 27.136C118.256 27.336 118.372 27.536 118.484 27.736C118.604 27.936 118.696 28.104 118.76 28.24L117.812 28.648C117.684 28.4 117.532 28.12 117.356 27.808C117.18 27.488 117.008 27.216 116.84 26.992L117.8 26.608ZM126.836 27.328C126.828 27.392 126.816 27.496 126.8 27.64C126.792 27.776 126.784 27.916 126.776 28.06C126.768 28.196 126.76 28.296 126.752 28.36C126.744 28.52 126.74 28.736 126.74 29.008C126.74 29.272 126.74 29.568 126.74 29.896C126.74 30.224 126.74 30.556 126.74 30.892C126.748 31.22 126.752 31.532 126.752 31.828C126.76 32.116 126.764 32.356 126.764 32.548L125.264 32.044C125.264 31.892 125.264 31.692 125.264 31.444C125.264 31.188 125.264 30.912 125.264 30.616C125.264 30.312 125.26 30.012 125.252 29.716C125.252 29.42 125.248 29.152 125.24 28.912C125.232 28.672 125.224 28.492 125.216 28.372C125.2 28.124 125.18 27.908 125.156 27.724C125.132 27.532 125.112 27.4 125.096 27.328H126.836ZM120.056 28.816C120.408 28.816 120.808 28.812 121.256 28.804C121.704 28.796 122.172 28.788 122.66 28.78C123.148 28.772 123.628 28.764 124.1 28.756C124.572 28.748 125.016 28.744 125.432 28.744C125.848 28.736 126.208 28.732 126.512 28.732C126.816 28.732 127.148 28.732 127.508 28.732C127.868 28.724 128.224 28.72 128.576 28.72C128.928 28.72 129.248 28.72 129.536 28.72C129.832 28.72 130.06 28.72 130.22 28.72L130.208 30.136C129.832 30.12 129.336 30.108 128.72 30.1C128.104 30.084 127.352 30.076 126.464 30.076C125.92 30.076 125.368 30.084 124.808 30.1C124.248 30.108 123.692 30.12 123.14 30.136C122.588 30.152 122.056 30.172 121.544 30.196C121.032 30.212 120.548 30.236 120.092 30.268L120.056 28.816ZM126.548 32.368C126.548 33.024 126.468 33.568 126.308 34C126.156 34.432 125.924 34.76 125.612 34.984C125.3 35.2 124.912 35.308 124.448 35.308C124.224 35.308 123.988 35.26 123.74 35.164C123.5 35.068 123.276 34.928 123.068 34.744C122.86 34.56 122.692 34.332 122.564 34.06C122.444 33.788 122.384 33.468 122.384 33.1C122.384 32.644 122.492 32.252 122.708 31.924C122.924 31.588 123.212 31.328 123.572 31.144C123.94 30.952 124.344 30.856 124.784 30.856C125.312 30.856 125.752 30.976 126.104 31.216C126.464 31.448 126.732 31.764 126.908 32.164C127.092 32.564 127.184 33.016 127.184 33.52C127.184 33.912 127.12 34.32 126.992 34.744C126.864 35.168 126.652 35.584 126.356 35.992C126.068 36.392 125.676 36.756 125.18 37.084C124.692 37.412 124.08 37.68 123.344 37.888L122.06 36.616C122.572 36.512 123.048 36.376 123.488 36.208C123.928 36.04 124.312 35.828 124.64 35.572C124.976 35.316 125.236 35 125.42 34.624C125.612 34.248 125.708 33.796 125.708 33.268C125.708 32.884 125.612 32.596 125.42 32.404C125.236 32.212 125.012 32.116 124.748 32.116C124.596 32.116 124.448 32.152 124.304 32.224C124.16 32.296 124.044 32.404 123.956 32.548C123.868 32.692 123.824 32.868 123.824 33.076C123.824 33.348 123.916 33.568 124.1 33.736C124.292 33.896 124.508 33.976 124.748 33.976C124.94 33.976 125.108 33.916 125.252 33.796C125.404 33.676 125.504 33.476 125.552 33.196C125.6 32.916 125.56 32.54 125.432 32.068L126.548 32.368Z" fill="#21B2AA"/>
<mask id="path-9-inside-1_16_76" fill="white">
<path d="M186.5 0C188.848 7.57651e-05 190.75 1.90284 190.75 4.25C190.75 5.13469 190.479 5.95541 190.016 6.63574C192.949 7.91214 195 10.8348 195 14.2373C194.999 15.7627 193.763 16.9988 192.238 16.999H180.763C179.238 16.999 178.001 15.7628 178 14.2373C178 10.8352 180.051 7.9124 182.983 6.63574C182.521 5.95556 182.25 5.13436 182.25 4.25C182.25 1.9028 184.153 0 186.5 0Z"/>
</mask>
<path d="M186.5 0C188.848 7.57651e-05 190.75 1.90284 190.75 4.25C190.75 5.13469 190.479 5.95541 190.016 6.63574C192.949 7.91214 195 10.8348 195 14.2373C194.999 15.7627 193.763 16.9988 192.238 16.999H180.763C179.238 16.999 178.001 15.7628 178 14.2373C178 10.8352 180.051 7.9124 182.983 6.63574C182.521 5.95556 182.25 5.13436 182.25 4.25C182.25 1.9028 184.153 0 186.5 0Z" fill="white"/>
<path d="M186.5 0L186.501 -1.5H186.5V0ZM190.75 4.25L192.25 4.25V4.25H190.75ZM190.016 6.63574L188.776 5.79239L187.758 7.28894L189.418 8.01112L190.016 6.63574ZM195 14.2373L196.5 14.2375V14.2373H195ZM192.238 16.999V18.499H192.238L192.238 16.999ZM178 14.2373H176.5V14.2375L178 14.2373ZM182.983 6.63574L183.582 8.01103L185.24 7.28887L184.224 5.79267L182.983 6.63574ZM182.25 4.25H180.75V4.25L182.25 4.25ZM186.5 0L186.5 1.5C188.019 1.50005 189.25 2.73134 189.25 4.25H190.75H192.25C192.25 1.07435 189.676 -1.4999 186.501 -1.5L186.5 0ZM190.75 4.25L189.25 4.25C189.25 4.82244 189.076 5.35114 188.776 5.79239L190.016 6.63574L191.257 7.47909C191.882 6.55969 192.25 5.44695 192.25 4.25L190.75 4.25ZM190.016 6.63574L189.418 8.01112C191.823 9.05797 193.5 11.4532 193.5 14.2373H195H196.5C196.5 10.2163 194.075 6.76632 190.615 5.26036L190.016 6.63574ZM195 14.2373L193.5 14.2371C193.499 14.9342 192.935 15.4989 192.238 15.499L192.238 16.999L192.238 18.499C194.592 18.4987 196.499 16.5912 196.5 14.2375L195 14.2373ZM192.238 16.999V15.499H180.763V16.999V18.499H192.238V16.999ZM180.763 16.999V15.499C180.066 15.499 179.501 14.9339 179.5 14.2371L178 14.2373L176.5 14.2375C176.501 16.5918 178.41 18.499 180.763 18.499V16.999ZM178 14.2373H179.5C179.5 11.4535 181.177 9.05807 183.582 8.01103L182.983 6.63574L182.384 5.26045C178.925 6.76674 176.5 10.2169 176.5 14.2373H178ZM182.983 6.63574L184.224 5.79267C183.925 5.35318 183.75 4.82417 183.75 4.25L182.25 4.25L180.75 4.25C180.75 5.44454 181.116 6.55795 181.742 7.47882L182.983 6.63574ZM182.25 4.25H183.75C183.75 2.73124 184.982 1.5 186.5 1.5V0V-1.5C183.325 -1.5 180.75 1.07435 180.75 4.25H182.25Z" fill="#6B7280" mask="url(#path-9-inside-1_16_76)"/>
<mask id="path-11-inside-2_16_76" fill="white">
<path d="M192 0C194.761 0.00022033 196.999 2.23872 196.999 5C196.999 6.04059 196.681 7.00635 196.137 7.80664C199.587 9.30837 201.999 12.7472 201.999 16.75C201.999 18.5448 200.544 20 198.749 20H185.25C183.455 20 182 18.5448 182 16.75C182 12.7477 184.412 9.30969 187.862 7.80762C187.318 7.0073 187 6.04065 187 5C187 2.23859 189.239 0 192 0Z"/>
</mask>
<path d="M192 0C194.761 0.00022033 196.999 2.23872 196.999 5C196.999 6.04059 196.681 7.00635 196.137 7.80664C199.587 9.30837 201.999 12.7472 201.999 16.75C201.999 18.5448 200.544 20 198.749 20H185.25C183.455 20 182 18.5448 182 16.75C182 12.7477 184.412 9.30969 187.862 7.80762C187.318 7.0073 187 6.04065 187 5C187 2.23859 189.239 0 192 0Z" fill="white"/>
<path d="M192 0L192 -1.5H192V0ZM196.999 5L198.499 5.00001V5H196.999ZM196.137 7.80664L194.896 6.96344L193.879 8.45987L195.538 9.182L196.137 7.80664ZM201.999 16.75L203.499 16.7501V16.75H201.999ZM185.25 20L185.25 21.5H185.25V20ZM182 16.75H180.5V16.7501L182 16.75ZM187.862 7.80762L188.46 9.18287L190.119 8.46056L189.102 6.96438L187.862 7.80762ZM187 5H185.5V5.00001L187 5ZM192 0L192 1.5C193.933 1.50015 195.499 3.0669 195.499 5H196.999H198.499C198.499 1.41054 195.59 -1.49971 192 -1.5L192 0ZM196.999 5L195.499 4.99999C195.499 5.72984 195.277 6.40343 194.896 6.96344L196.137 7.80664L197.378 8.64984C198.085 7.60928 198.499 6.35135 198.499 5.00001L196.999 5ZM196.137 7.80664L195.538 9.182C198.461 10.4541 200.499 13.3655 200.499 16.75H201.999H203.499C203.499 12.1289 200.713 8.16264 196.736 6.43129L196.137 7.80664ZM201.999 16.75L200.499 16.7499C200.499 17.7165 199.716 18.5 198.749 18.5V20V21.5C201.373 21.5 203.499 19.3731 203.499 16.7501L201.999 16.75ZM198.749 20V18.5H185.25V20V21.5H198.749V20ZM185.25 20L185.25 18.5C184.284 18.5 183.5 17.7164 183.5 16.7499L182 16.75L180.5 16.7501C180.5 19.3731 182.627 21.5 185.25 21.5L185.25 20ZM182 16.75H183.5C183.5 13.3661 185.538 10.4554 188.46 9.18287L187.862 7.80762L187.263 6.43236C183.286 8.16403 180.5 12.1293 180.5 16.75H182ZM187.862 7.80762L189.102 6.96438C188.722 6.40547 188.5 5.73121 188.5 4.99999L187 5L185.5 5.00001C185.5 6.3501 185.913 7.60913 186.621 8.65086L187.862 7.80762ZM187 5H188.5C188.5 3.06703 190.067 1.5 192 1.5V0V-1.5C188.411 -1.5 185.5 1.41014 185.5 5H187Z" fill="#6B7280" mask="url(#path-11-inside-2_16_76)"/>
<path d="M166.648 30.424C166.872 30.384 167.12 30.328 167.392 30.256C167.664 30.184 167.908 30.12 168.124 30.064C168.356 29.992 168.668 29.892 169.06 29.764C169.46 29.636 169.9 29.508 170.38 29.38C170.86 29.252 171.348 29.144 171.844 29.056C172.348 28.96 172.816 28.912 173.248 28.912C173.976 28.912 174.632 29.048 175.216 29.32C175.8 29.592 176.264 29.984 176.608 30.496C176.952 31.008 177.124 31.636 177.124 32.38C177.124 32.924 177.024 33.428 176.824 33.892C176.624 34.356 176.328 34.772 175.936 35.14C175.552 35.508 175.084 35.828 174.532 36.1C173.98 36.372 173.348 36.592 172.636 36.76C171.932 36.92 171.156 37.02 170.308 37.06L169.612 35.464C170.428 35.448 171.184 35.376 171.88 35.248C172.584 35.112 173.2 34.92 173.728 34.672C174.256 34.416 174.668 34.096 174.964 33.712C175.26 33.328 175.408 32.876 175.408 32.356C175.408 31.98 175.324 31.644 175.156 31.348C174.988 31.044 174.736 30.804 174.4 30.628C174.072 30.452 173.668 30.364 173.188 30.364C172.836 30.364 172.448 30.408 172.024 30.496C171.6 30.576 171.164 30.684 170.716 30.82C170.276 30.956 169.844 31.104 169.42 31.264C168.996 31.416 168.604 31.568 168.244 31.72C167.884 31.872 167.58 32 167.332 32.104L166.648 30.424ZM178.996 29.14C179.252 29.172 179.524 29.196 179.812 29.212C180.108 29.22 180.368 29.224 180.592 29.224C181.088 29.224 181.588 29.196 182.092 29.14C182.604 29.084 183.096 29.012 183.568 28.924C184.04 28.828 184.468 28.72 184.852 28.6L184.9 29.992C184.556 30.08 184.144 30.172 183.664 30.268C183.192 30.356 182.692 30.432 182.164 30.496C181.636 30.552 181.116 30.58 180.604 30.58C180.364 30.58 180.12 30.576 179.872 30.568C179.624 30.56 179.368 30.548 179.104 30.532L178.996 29.14ZM183.664 27.34C183.616 27.54 183.552 27.8 183.472 28.12C183.392 28.44 183.3 28.776 183.196 29.128C183.1 29.48 182.996 29.828 182.884 30.172C182.708 30.748 182.476 31.36 182.188 32.008C181.9 32.656 181.588 33.288 181.252 33.904C180.916 34.52 180.576 35.068 180.232 35.548L178.78 34.804C179.052 34.468 179.32 34.096 179.584 33.688C179.848 33.28 180.096 32.86 180.328 32.428C180.56 31.996 180.768 31.58 180.952 31.18C181.144 30.772 181.296 30.404 181.408 30.076C181.56 29.652 181.692 29.18 181.804 28.66C181.924 28.132 181.992 27.636 182.008 27.172L183.664 27.34ZM186.472 31.072C186.456 31.328 186.448 31.584 186.448 31.84C186.456 32.088 186.464 32.344 186.472 32.608C186.48 32.792 186.488 33.028 186.496 33.316C186.512 33.596 186.528 33.896 186.544 34.216C186.56 34.528 186.572 34.828 186.58 35.116C186.596 35.396 186.604 35.62 186.604 35.788C186.604 36.156 186.528 36.492 186.376 36.796C186.224 37.092 185.98 37.328 185.644 37.504C185.316 37.68 184.864 37.768 184.288 37.768C183.792 37.768 183.344 37.692 182.944 37.54C182.544 37.396 182.224 37.18 181.984 36.892C181.744 36.596 181.624 36.228 181.624 35.788C181.624 35.396 181.728 35.044 181.936 34.732C182.144 34.412 182.444 34.164 182.836 33.988C183.236 33.804 183.716 33.712 184.276 33.712C184.98 33.712 185.628 33.812 186.22 34.012C186.812 34.204 187.344 34.452 187.816 34.756C188.288 35.06 188.692 35.364 189.028 35.668L188.224 36.952C188.008 36.76 187.76 36.544 187.48 36.304C187.208 36.064 186.9 35.84 186.556 35.632C186.22 35.424 185.852 35.252 185.452 35.116C185.06 34.98 184.636 34.912 184.18 34.912C183.836 34.912 183.56 34.98 183.352 35.116C183.144 35.252 183.04 35.428 183.04 35.644C183.04 35.868 183.128 36.048 183.304 36.184C183.488 36.32 183.744 36.388 184.072 36.388C184.344 36.388 184.56 36.344 184.72 36.256C184.88 36.16 184.992 36.028 185.056 35.86C185.12 35.684 185.152 35.488 185.152 35.272C185.152 35.088 185.144 34.828 185.128 34.492C185.112 34.156 185.092 33.784 185.068 33.376C185.052 32.968 185.036 32.56 185.02 32.152C185.004 31.744 184.988 31.384 184.972 31.072H186.472ZM188.536 31.708C188.304 31.516 188.016 31.312 187.672 31.096C187.328 30.88 186.972 30.676 186.604 30.484C186.244 30.284 185.928 30.124 185.656 30.004L186.424 28.816C186.64 28.912 186.884 29.032 187.156 29.176C187.436 29.312 187.716 29.456 187.996 29.608C188.284 29.76 188.548 29.912 188.788 30.064C189.036 30.208 189.236 30.336 189.388 30.448L188.536 31.708ZM195.46 27.604C195.428 27.756 195.392 27.924 195.352 28.108C195.312 28.284 195.276 28.448 195.244 28.6C195.212 28.776 195.172 28.976 195.124 29.2C195.076 29.416 195.028 29.636 194.98 29.86C194.94 30.076 194.896 30.288 194.848 30.496C194.768 30.84 194.668 31.24 194.548 31.696C194.428 32.152 194.288 32.644 194.128 33.172C193.968 33.692 193.788 34.216 193.588 34.744C193.388 35.272 193.176 35.788 192.952 36.292C192.728 36.788 192.488 37.236 192.232 37.636L190.672 37.012C190.952 36.636 191.212 36.216 191.452 35.752C191.7 35.28 191.924 34.8 192.124 34.312C192.324 33.816 192.5 33.328 192.652 32.848C192.812 32.36 192.948 31.908 193.06 31.492C193.18 31.076 193.272 30.72 193.336 30.424C193.448 29.88 193.536 29.356 193.6 28.852C193.664 28.348 193.688 27.872 193.672 27.424L195.46 27.604ZM199.588 28.816C199.78 29.08 199.976 29.404 200.176 29.788C200.384 30.164 200.588 30.564 200.788 30.988C200.988 31.412 201.168 31.82 201.328 32.212C201.488 32.604 201.612 32.944 201.7 33.232L200.176 33.928C200.104 33.592 199.996 33.22 199.852 32.812C199.716 32.404 199.556 31.992 199.372 31.576C199.188 31.152 198.992 30.752 198.784 30.376C198.584 30 198.376 29.684 198.16 29.428L199.588 28.816ZM190.588 30.064C190.804 30.08 191.016 30.088 191.224 30.088C191.44 30.08 191.656 30.072 191.872 30.064C192.072 30.056 192.312 30.044 192.592 30.028C192.872 30.004 193.168 29.98 193.48 29.956C193.8 29.932 194.12 29.908 194.44 29.884C194.76 29.852 195.056 29.828 195.328 29.812C195.6 29.796 195.824 29.788 196 29.788C196.432 29.788 196.808 29.86 197.128 30.004C197.448 30.14 197.7 30.376 197.884 30.712C198.076 31.048 198.172 31.504 198.172 32.08C198.172 32.552 198.152 33.064 198.112 33.616C198.072 34.168 198 34.696 197.896 35.2C197.8 35.704 197.664 36.132 197.488 36.484C197.296 36.9 197.032 37.188 196.696 37.348C196.368 37.508 195.976 37.588 195.52 37.588C195.296 37.588 195.052 37.568 194.788 37.528C194.524 37.496 194.288 37.46 194.08 37.42L193.828 35.836C193.98 35.876 194.148 35.916 194.332 35.956C194.524 35.996 194.704 36.028 194.872 36.052C195.048 36.076 195.188 36.088 195.292 36.088C195.492 36.088 195.668 36.052 195.82 35.98C195.972 35.9 196.096 35.764 196.192 35.572C196.304 35.34 196.396 35.04 196.468 34.672C196.54 34.304 196.592 33.908 196.624 33.484C196.664 33.052 196.684 32.64 196.684 32.248C196.684 31.928 196.636 31.692 196.54 31.54C196.452 31.388 196.32 31.288 196.144 31.24C195.976 31.184 195.768 31.156 195.52 31.156C195.336 31.156 195.088 31.172 194.776 31.204C194.464 31.228 194.128 31.26 193.768 31.3C193.416 31.332 193.088 31.368 192.784 31.408C192.48 31.448 192.244 31.476 192.076 31.492C191.9 31.524 191.676 31.56 191.404 31.6C191.14 31.632 190.916 31.664 190.732 31.696L190.588 30.064ZM199.372 27.148C199.476 27.292 199.584 27.464 199.696 27.664C199.816 27.864 199.932 28.064 200.044 28.264C200.156 28.464 200.252 28.64 200.332 28.792L199.36 29.212C199.28 29.044 199.188 28.86 199.084 28.66C198.98 28.46 198.872 28.26 198.76 28.06C198.648 27.86 198.536 27.688 198.424 27.544L199.372 27.148ZM200.8 26.608C200.904 26.76 201.016 26.936 201.136 27.136C201.256 27.336 201.372 27.536 201.484 27.736C201.604 27.936 201.696 28.104 201.76 28.24L200.812 28.648C200.684 28.4 200.532 28.12 200.356 27.808C200.18 27.488 200.008 27.216 199.84 26.992L200.8 26.608ZM206.332 27.364C206.292 27.508 206.248 27.688 206.2 27.904C206.152 28.12 206.104 28.348 206.056 28.588C206.008 28.82 205.964 29.048 205.924 29.272C205.892 29.496 205.868 29.692 205.852 29.86C205.996 29.62 206.168 29.388 206.368 29.164C206.568 28.932 206.792 28.724 207.04 28.54C207.296 28.348 207.572 28.196 207.868 28.084C208.172 27.972 208.492 27.916 208.828 27.916C209.388 27.916 209.892 28.088 210.34 28.432C210.788 28.776 211.14 29.268 211.396 29.908C211.66 30.548 211.792 31.308 211.792 32.188C211.792 33.036 211.668 33.78 211.42 34.42C211.172 35.052 210.816 35.592 210.352 36.04C209.888 36.488 209.332 36.852 208.684 37.132C208.044 37.42 207.328 37.636 206.536 37.78L205.624 36.388C206.288 36.284 206.896 36.144 207.448 35.968C208.008 35.784 208.488 35.536 208.888 35.224C209.296 34.912 209.608 34.512 209.824 34.024C210.048 33.528 210.16 32.92 210.16 32.2C210.16 31.584 210.096 31.064 209.968 30.64C209.84 30.208 209.652 29.88 209.404 29.656C209.164 29.432 208.876 29.32 208.54 29.32C208.188 29.32 207.852 29.436 207.532 29.668C207.212 29.9 206.924 30.204 206.668 30.58C206.42 30.948 206.22 31.348 206.068 31.78C205.924 32.212 205.844 32.628 205.828 33.028C205.82 33.196 205.816 33.38 205.816 33.58C205.824 33.78 205.848 34.02 205.888 34.3L204.412 34.396C204.38 34.164 204.344 33.876 204.304 33.532C204.272 33.18 204.256 32.8 204.256 32.392C204.256 32.112 204.264 31.812 204.28 31.492C204.304 31.172 204.328 30.848 204.352 30.52C204.384 30.184 204.42 29.848 204.46 29.512C204.508 29.176 204.552 28.856 204.592 28.552C204.624 28.32 204.648 28.092 204.664 27.868C204.68 27.644 204.688 27.452 204.688 27.292L206.332 27.364Z" fill="#6B7280"/>
<path d="M264 12H270" stroke="#6B7280" stroke-width="1.5" stroke-linecap="round"/>
<path d="M266 8H270" stroke="#6B7280" stroke-width="1.5" stroke-linecap="round"/>
<mask id="path-16-inside-3_16_76" fill="white">
<path d="M267 0C272.523 5.56632e-05 277 4.47724 277 10C277 11.8758 276.482 13.6298 275.583 15.1299L276.708 18.0615C277.005 18.8344 276.288 19.6129 275.493 19.3799L272.337 18.4541C270.792 19.4313 268.963 20 267 20C261.477 20 257 15.5227 257 10C257 4.47721 261.477 0 267 0Z"/>
</mask>
<path d="M267 0L267 -1.5H267V0ZM277 10L278.5 10V10H277ZM275.583 15.1299L274.296 14.3591L273.921 14.9855L274.183 15.6673L275.583 15.1299ZM276.708 18.0615L275.308 18.5989L275.308 18.599L276.708 18.0615ZM275.493 19.3799L275.071 20.8192L275.071 20.8193L275.493 19.3799ZM272.337 18.4541L272.759 17.0147L272.108 16.8238L271.535 17.1865L272.337 18.4541ZM267 20V21.5H267L267 20ZM257 10H255.5V10L257 10ZM267 0L267 1.5C271.694 1.50005 275.5 5.30569 275.5 10H277H278.5C278.5 3.6488 273.351 -1.49994 267 -1.5L267 0ZM277 10L275.5 9.99998C275.5 11.5955 275.06 13.0843 274.296 14.3591L275.583 15.1299L276.87 15.9007C277.903 14.1753 278.5 12.156 278.5 10L277 10ZM275.583 15.1299L274.183 15.6673L275.308 18.5989L276.708 18.0615L278.108 17.5241L276.983 14.5925L275.583 15.1299ZM276.708 18.0615L275.308 18.599C275.16 18.2139 275.517 17.8236 275.915 17.9405L275.493 19.3799L275.071 20.8193C277.058 21.4021 278.849 19.4549 278.108 17.5241L276.708 18.0615ZM275.493 19.3799L275.915 17.9405L272.759 17.0147L272.337 18.4541L271.915 19.8935L275.071 20.8192L275.493 19.3799ZM272.337 18.4541L271.535 17.1865C270.221 18.0174 268.669 18.5 267 18.5L267 20L267 21.5C269.257 21.5 271.363 20.8452 273.139 19.7217L272.337 18.4541ZM267 20V18.5C262.306 18.5 258.5 14.6943 258.5 9.99998L257 10L255.5 10C255.5 16.3512 260.649 21.5 267 21.5V20ZM257 10H258.5C258.5 5.30564 262.306 1.5 267 1.5V0V-1.5C260.649 -1.5 255.5 3.64878 255.5 10H257Z" fill="#6B7280" mask="url(#path-16-inside-3_16_76)"/>
<path d="M247.233 28.18C247.153 28.316 247.065 28.496 246.969 28.72C246.873 28.936 246.793 29.116 246.729 29.26C246.585 29.66 246.405 30.096 246.189 30.568C245.973 31.032 245.729 31.5 245.457 31.972C245.185 32.444 244.885 32.896 244.557 33.328C244.189 33.816 243.769 34.308 243.297 34.804C242.833 35.292 242.301 35.772 241.701 36.244C241.101 36.716 240.413 37.168 239.637 37.6L238.293 36.388C239.389 35.86 240.333 35.264 241.125 34.6C241.917 33.928 242.625 33.176 243.249 32.344C243.737 31.728 244.125 31.112 244.413 30.496C244.709 29.872 244.957 29.26 245.157 28.66C245.221 28.5 245.277 28.316 245.325 28.108C245.381 27.892 245.421 27.708 245.445 27.556L247.233 28.18ZM240.633 29.344C240.937 29.528 241.257 29.736 241.593 29.968C241.937 30.192 242.281 30.424 242.625 30.664C242.977 30.904 243.309 31.14 243.621 31.372C243.941 31.604 244.229 31.816 244.485 32.008C245.125 32.512 245.749 33.036 246.357 33.58C246.965 34.124 247.513 34.656 248.001 35.176L246.765 36.544C246.237 35.936 245.701 35.376 245.157 34.864C244.613 34.344 244.025 33.82 243.393 33.292C243.177 33.108 242.929 32.908 242.649 32.692C242.369 32.476 242.065 32.248 241.737 32.008C241.417 31.768 241.077 31.528 240.717 31.288C240.357 31.04 239.989 30.8 239.613 30.568L240.633 29.344ZM255.177 29.872C255.233 30 255.305 30.184 255.393 30.424C255.489 30.656 255.589 30.908 255.693 31.18C255.797 31.444 255.889 31.696 255.969 31.936C256.049 32.176 256.113 32.364 256.161 32.5L254.721 33.004C254.689 32.852 254.633 32.66 254.553 32.428C254.473 32.196 254.385 31.952 254.289 31.696C254.193 31.432 254.097 31.18 254.001 30.94C253.905 30.7 253.821 30.5 253.749 30.34L255.177 29.872ZM259.605 30.748C259.541 30.94 259.485 31.104 259.437 31.24C259.397 31.376 259.357 31.504 259.317 31.624C259.165 32.232 258.957 32.84 258.693 33.448C258.429 34.048 258.093 34.612 257.685 35.14C257.125 35.86 256.489 36.472 255.777 36.976C255.073 37.472 254.369 37.852 253.665 38.116L252.405 36.832C252.845 36.712 253.309 36.536 253.797 36.304C254.285 36.064 254.757 35.776 255.213 35.44C255.669 35.104 256.061 34.732 256.389 34.324C256.661 33.98 256.901 33.588 257.109 33.148C257.325 32.7 257.501 32.224 257.637 31.72C257.781 31.208 257.877 30.704 257.925 30.208L259.605 30.748ZM252.393 30.508C252.473 30.66 252.561 30.856 252.657 31.096C252.761 31.336 252.865 31.588 252.969 31.852C253.073 32.116 253.173 32.372 253.269 32.62C253.373 32.868 253.453 33.076 253.509 33.244L252.045 33.796C251.997 33.636 251.925 33.428 251.829 33.172C251.741 32.916 251.641 32.648 251.529 32.368C251.417 32.08 251.309 31.816 251.205 31.576C251.109 31.336 251.025 31.152 250.953 31.024L252.393 30.508ZM264.501 35.404C264.501 35.236 264.501 34.996 264.501 34.684C264.501 34.364 264.501 34.004 264.501 33.604C264.501 33.196 264.501 32.772 264.501 32.332C264.501 31.884 264.501 31.448 264.501 31.024C264.501 30.592 264.501 30.192 264.501 29.824C264.501 29.456 264.501 29.148 264.501 28.9C264.501 28.772 264.497 28.624 264.489 28.456C264.489 28.288 264.481 28.12 264.465 27.952C264.449 27.784 264.429 27.64 264.405 27.52H266.193C266.169 27.704 266.145 27.932 266.121 28.204C266.097 28.468 266.085 28.7 266.085 28.9C266.085 29.14 266.085 29.428 266.085 29.764C266.085 30.092 266.085 30.448 266.085 30.832C266.085 31.208 266.085 31.592 266.085 31.984C266.085 32.376 266.085 32.76 266.085 33.136C266.085 33.512 266.085 33.856 266.085 34.168C266.085 34.48 266.085 34.752 266.085 34.984C266.085 35.224 266.121 35.42 266.193 35.572C266.265 35.724 266.409 35.832 266.625 35.896C266.849 35.96 267.181 35.992 267.621 35.992C268.045 35.992 268.469 35.976 268.893 35.944C269.325 35.904 269.753 35.856 270.177 35.8C270.601 35.736 271.009 35.664 271.401 35.584L271.353 37.216C271.025 37.264 270.653 37.308 270.237 37.348C269.821 37.388 269.389 37.42 268.941 37.444C268.501 37.468 268.065 37.48 267.633 37.48C266.953 37.48 266.405 37.436 265.989 37.348C265.573 37.268 265.257 37.144 265.041 36.976C264.833 36.808 264.689 36.592 264.609 36.328C264.537 36.064 264.501 35.756 264.501 35.404ZM272.061 30.124C272.005 30.212 271.937 30.32 271.857 30.448C271.785 30.568 271.721 30.68 271.665 30.784C271.537 31.032 271.373 31.312 271.173 31.624C270.981 31.936 270.773 32.256 270.549 32.584C270.325 32.912 270.093 33.224 269.853 33.52C269.621 33.816 269.397 34.068 269.181 34.276L267.861 33.496C268.125 33.264 268.381 33 268.629 32.704C268.885 32.4 269.113 32.104 269.313 31.816C269.513 31.52 269.669 31.272 269.781 31.072C269.669 31.088 269.473 31.128 269.193 31.192C268.921 31.248 268.585 31.316 268.185 31.396C267.785 31.476 267.349 31.564 266.877 31.66C266.405 31.748 265.929 31.84 265.449 31.936C264.969 32.032 264.505 32.128 264.057 32.224C263.609 32.312 263.205 32.396 262.845 32.476C262.485 32.548 262.197 32.608 261.981 32.656L261.693 31.084C261.925 31.052 262.229 31.008 262.605 30.952C262.981 30.888 263.401 30.816 263.865 30.736C264.329 30.648 264.813 30.556 265.317 30.46C265.821 30.364 266.321 30.268 266.817 30.172C267.313 30.076 267.777 29.988 268.209 29.908C268.641 29.82 269.017 29.744 269.337 29.68C269.657 29.608 269.897 29.552 270.057 29.512C270.225 29.472 270.381 29.432 270.525 29.392C270.669 29.344 270.797 29.292 270.909 29.236L272.061 30.124ZM274.221 31.444C274.365 31.452 274.549 31.464 274.773 31.48C274.997 31.488 275.229 31.496 275.469 31.504C275.717 31.512 275.945 31.516 276.153 31.516C276.353 31.516 276.601 31.516 276.897 31.516C277.193 31.516 277.513 31.516 277.857 31.516C278.209 31.516 278.569 31.516 278.937 31.516C279.313 31.516 279.685 31.516 280.053 31.516C280.421 31.516 280.769 31.516 281.097 31.516C281.425 31.516 281.717 31.516 281.973 31.516C282.237 31.516 282.445 31.516 282.597 31.516C282.877 31.516 283.141 31.508 283.389 31.492C283.637 31.468 283.841 31.452 284.001 31.444V33.328C283.865 33.32 283.661 33.308 283.389 33.292C283.117 33.276 282.853 33.268 282.597 33.268C282.445 33.268 282.237 33.268 281.973 33.268C281.709 33.268 281.413 33.268 281.085 33.268C280.757 33.268 280.409 33.268 280.041 33.268C279.681 33.268 279.313 33.268 278.937 33.268C278.561 33.268 278.197 33.268 277.845 33.268C277.501 33.268 277.181 33.268 276.885 33.268C276.597 33.268 276.353 33.268 276.153 33.268C275.809 33.268 275.457 33.276 275.097 33.292C274.737 33.3 274.445 33.312 274.221 33.328V31.444ZM293.643 27.784C293.755 27.952 293.875 28.148 294.003 28.372C294.139 28.588 294.271 28.808 294.399 29.032C294.527 29.248 294.639 29.452 294.735 29.644L293.691 30.088C293.571 29.832 293.459 29.604 293.355 29.404C293.251 29.196 293.139 28.996 293.019 28.804C292.907 28.604 292.779 28.404 292.635 28.204L293.643 27.784ZM295.287 27.208C295.415 27.36 295.547 27.544 295.683 27.76C295.819 27.976 295.951 28.192 296.079 28.408C296.207 28.624 296.319 28.82 296.415 28.996L295.395 29.452C295.267 29.204 295.143 28.98 295.023 28.78C294.911 28.58 294.795 28.388 294.675 28.204C294.555 28.02 294.419 27.828 294.267 27.628L295.287 27.208ZM288.423 27.556C288.623 27.66 288.847 27.788 289.095 27.94C289.343 28.092 289.595 28.252 289.851 28.42C290.107 28.58 290.351 28.736 290.583 28.888C290.815 29.032 291.007 29.16 291.159 29.272L290.271 30.592C290.103 30.48 289.903 30.348 289.671 30.196C289.447 30.044 289.207 29.888 288.951 29.728C288.703 29.568 288.455 29.416 288.207 29.272C287.967 29.12 287.751 28.988 287.559 28.876L288.423 27.556ZM286.203 36.076C286.651 35.996 287.107 35.896 287.571 35.776C288.035 35.656 288.495 35.512 288.951 35.344C289.407 35.168 289.851 34.96 290.283 34.72C290.963 34.336 291.595 33.904 292.179 33.424C292.771 32.944 293.303 32.436 293.775 31.9C294.247 31.356 294.639 30.796 294.951 30.22L295.875 31.852C295.323 32.684 294.635 33.472 293.811 34.216C292.995 34.952 292.095 35.604 291.111 36.172C290.703 36.396 290.255 36.612 289.767 36.82C289.279 37.02 288.799 37.192 288.327 37.336C287.863 37.48 287.455 37.584 287.103 37.648L286.203 36.076ZM286.575 30.292C286.775 30.396 287.003 30.524 287.259 30.676C287.515 30.828 287.771 30.984 288.027 31.144C288.283 31.296 288.523 31.448 288.747 31.6C288.979 31.744 289.171 31.872 289.323 31.984L288.447 33.328C288.271 33.208 288.067 33.072 287.835 32.92C287.611 32.768 287.371 32.612 287.115 32.452C286.867 32.292 286.619 32.14 286.371 31.996C286.131 31.844 285.911 31.716 285.711 31.612L286.575 30.292Z" fill="#6B7280"/>
<mask id="path-19-inside-4_16_76" fill="white">
<path d="M344 0C346.762 0.000257177 349 2.23874 349 5C349 6.04087 348.681 7.0072 348.137 7.80762C351.587 9.30944 354 12.7473 354 16.75C353.999 18.5448 352.544 20 350.75 20H337.25C335.456 20 334.001 18.5448 334 16.75C334 12.7477 336.413 9.30968 339.862 7.80762C339.318 7.0073 339 6.04067 339 5C339 2.23859 341.239 0 344 0Z"/>
</mask>
<path d="M344 0L344.001 -1.5H344V0ZM349 5L350.5 5.00001V5H349ZM348.137 7.80762L346.897 6.96423L345.879 8.46066L347.538 9.18294L348.137 7.80762ZM354 16.75L355.5 16.7501V16.75H354ZM334 16.75H332.5V16.7501L334 16.75ZM339.862 7.80762L340.461 9.18287L342.119 8.46056L341.102 6.96437L339.862 7.80762ZM339 5H337.5V5.00001L339 5ZM344 0L344 1.5C345.933 1.50018 347.5 3.06695 347.5 5H349H350.5C350.5 1.41054 347.59 -1.49967 344.001 -1.5L344 0ZM349 5L347.5 4.99999C347.5 5.73057 347.277 6.40458 346.897 6.96423L348.137 7.80762L349.378 8.651C350.086 7.60983 350.5 6.35117 350.5 5.00001L349 5ZM348.137 7.80762L347.538 9.18294C350.461 10.4552 352.5 13.3658 352.5 16.75H354H355.5C355.5 12.1288 352.713 8.16365 348.736 6.43229L348.137 7.80762ZM354 16.75L352.5 16.7499C352.499 17.7165 351.716 18.5 350.75 18.5V20V21.5C353.373 21.5 355.499 19.3731 355.5 16.7501L354 16.75ZM350.75 20V18.5H337.25V20V21.5H350.75V20ZM337.25 20V18.5C336.284 18.5 335.501 17.7165 335.5 16.7499L334 16.75L332.5 16.7501C332.501 19.3731 334.627 21.5 337.25 21.5V20ZM334 16.75H335.5C335.5 13.3661 337.539 10.4553 340.461 9.18287L339.862 7.80762L339.263 6.43236C335.286 8.16402 332.5 12.1293 332.5 16.75H334ZM339.862 7.80762L341.102 6.96437C340.722 6.40547 340.5 5.73123 340.5 4.99999L339 5L337.5 5.00001C337.5 6.35011 337.913 7.60912 338.621 8.65086L339.862 7.80762ZM339 5H340.5C340.5 3.06703 342.068 1.5 344 1.5V0V-1.5C340.411 -1.5 337.5 1.41014 337.5 5H339Z" fill="#6B7280" mask="url(#path-19-inside-4_16_76)"/>
<path d="M325.553 29.44C325.465 29.536 325.385 29.624 325.313 29.704C325.249 29.784 325.193 29.864 325.145 29.944C324.905 30.328 324.621 30.744 324.293 31.192C323.965 31.64 323.601 32.092 323.201 32.548C322.801 33.004 322.377 33.444 321.929 33.868C321.489 34.292 321.033 34.676 320.561 35.02L319.373 33.904C319.773 33.632 320.149 33.332 320.501 33.004C320.861 32.668 321.193 32.328 321.497 31.984C321.809 31.64 322.085 31.304 322.325 30.976C322.565 30.648 322.765 30.348 322.925 30.076C322.765 30.076 322.553 30.076 322.289 30.076C322.025 30.076 321.717 30.076 321.365 30.076C321.021 30.076 320.657 30.076 320.273 30.076C319.889 30.076 319.505 30.076 319.121 30.076C318.745 30.076 318.385 30.076 318.041 30.076C317.705 30.076 317.409 30.076 317.153 30.076C316.905 30.076 316.713 30.076 316.577 30.076C316.417 30.076 316.245 30.08 316.061 30.088C315.885 30.096 315.717 30.108 315.557 30.124C315.397 30.14 315.277 30.152 315.197 30.16V28.48C315.301 28.488 315.433 28.504 315.593 28.528C315.761 28.552 315.933 28.568 316.109 28.576C316.285 28.584 316.441 28.588 316.577 28.588C316.681 28.588 316.857 28.588 317.105 28.588C317.361 28.588 317.661 28.588 318.005 28.588C318.349 28.588 318.717 28.588 319.109 28.588C319.509 28.588 319.909 28.588 320.309 28.588C320.717 28.588 321.109 28.588 321.485 28.588C321.861 28.588 322.197 28.588 322.493 28.588C322.797 28.588 323.045 28.588 323.237 28.588C323.709 28.588 324.081 28.544 324.353 28.456L325.553 29.44ZM319.217 35.188C319.041 35.012 318.837 34.82 318.605 34.612C318.381 34.396 318.145 34.18 317.897 33.964C317.657 33.748 317.421 33.548 317.189 33.364C316.965 33.172 316.761 33.012 316.577 32.884L317.849 31.864C318.009 31.984 318.197 32.132 318.413 32.308C318.637 32.484 318.873 32.676 319.121 32.884C319.369 33.092 319.621 33.308 319.877 33.532C320.133 33.756 320.377 33.976 320.609 34.192C320.873 34.448 321.145 34.724 321.425 35.02C321.713 35.316 321.985 35.604 322.241 35.884C322.505 36.164 322.729 36.424 322.913 36.664L321.509 37.78C321.341 37.556 321.125 37.296 320.861 37C320.605 36.696 320.333 36.384 320.045 36.064C319.757 35.744 319.481 35.452 319.217 35.188ZM326.861 32.332C327.941 32.052 328.917 31.728 329.789 31.36C330.669 30.984 331.441 30.592 332.105 30.184C332.521 29.928 332.937 29.636 333.353 29.308C333.777 28.972 334.173 28.628 334.541 28.276C334.917 27.924 335.233 27.588 335.489 27.268L336.785 28.504C336.417 28.864 336.013 29.228 335.573 29.596C335.141 29.964 334.689 30.316 334.217 30.652C333.745 30.988 333.277 31.296 332.813 31.576C332.357 31.84 331.845 32.112 331.277 32.392C330.717 32.672 330.125 32.936 329.501 33.184C328.877 33.432 328.249 33.652 327.617 33.844L326.861 32.332ZM331.853 30.952L333.557 30.556V35.956C333.557 36.132 333.561 36.324 333.569 36.532C333.577 36.74 333.589 36.932 333.605 37.108C333.621 37.292 333.641 37.432 333.665 37.528H331.769C331.785 37.432 331.797 37.292 331.805 37.108C331.821 36.932 331.833 36.74 331.841 36.532C331.849 36.324 331.853 36.132 331.853 35.956V30.952ZM346.793 29.656C346.793 29.864 346.865 30.044 347.009 30.196C347.161 30.34 347.341 30.412 347.549 30.412C347.765 30.412 347.945 30.34 348.089 30.196C348.241 30.044 348.317 29.864 348.317 29.656C348.317 29.44 348.241 29.26 348.089 29.116C347.945 28.964 347.765 28.888 347.549 28.888C347.341 28.888 347.161 28.964 347.009 29.116C346.865 29.26 346.793 29.44 346.793 29.656ZM346.001 29.656C346.001 29.36 346.069 29.096 346.205 28.864C346.349 28.632 346.537 28.448 346.769 28.312C347.001 28.168 347.261 28.096 347.549 28.096C347.845 28.096 348.109 28.168 348.341 28.312C348.573 28.448 348.757 28.632 348.893 28.864C349.037 29.096 349.109 29.36 349.109 29.656C349.109 29.936 349.037 30.196 348.893 30.436C348.757 30.668 348.573 30.856 348.341 31C348.109 31.136 347.845 31.204 347.549 31.204C347.261 31.204 347.001 31.136 346.769 31C346.537 30.856 346.349 30.668 346.205 30.436C346.069 30.196 346.001 29.936 346.001 29.656ZM338.537 33.58C338.721 33.428 338.885 33.284 339.029 33.148C339.173 33.012 339.341 32.852 339.533 32.668C339.669 32.524 339.825 32.352 340.001 32.152C340.177 31.952 340.365 31.728 340.565 31.48C340.773 31.232 340.985 30.98 341.201 30.724C341.417 30.46 341.629 30.204 341.837 29.956C342.189 29.532 342.553 29.3 342.929 29.26C343.305 29.212 343.725 29.412 344.189 29.86C344.461 30.108 344.737 30.376 345.017 30.664C345.305 30.952 345.585 31.24 345.857 31.528C346.137 31.816 346.397 32.092 346.637 32.356C346.909 32.636 347.213 32.96 347.549 33.328C347.893 33.696 348.241 34.072 348.593 34.456C348.953 34.84 349.285 35.196 349.589 35.524L348.269 36.94C348.005 36.604 347.721 36.252 347.417 35.884C347.113 35.516 346.817 35.16 346.529 34.816C346.241 34.464 345.977 34.152 345.737 33.88C345.569 33.672 345.377 33.452 345.161 33.22C344.953 32.98 344.745 32.744 344.537 32.512C344.329 32.28 344.137 32.072 343.961 31.888C343.785 31.704 343.645 31.556 343.541 31.444C343.341 31.252 343.169 31.164 343.025 31.18C342.889 31.188 342.733 31.3 342.557 31.516C342.445 31.668 342.309 31.848 342.149 32.056C341.989 32.264 341.825 32.484 341.657 32.716C341.489 32.948 341.325 33.172 341.165 33.388C341.013 33.604 340.877 33.792 340.757 33.952C340.621 34.144 340.485 34.34 340.349 34.54C340.213 34.732 340.089 34.908 339.977 35.068L338.537 33.58ZM351.221 31.444C351.365 31.452 351.549 31.464 351.773 31.48C351.997 31.488 352.229 31.496 352.469 31.504C352.717 31.512 352.945 31.516 353.153 31.516C353.353 31.516 353.601 31.516 353.897 31.516C354.193 31.516 354.513 31.516 354.857 31.516C355.209 31.516 355.569 31.516 355.937 31.516C356.313 31.516 356.685 31.516 357.053 31.516C357.421 31.516 357.769 31.516 358.097 31.516C358.425 31.516 358.717 31.516 358.973 31.516C359.237 31.516 359.445 31.516 359.597 31.516C359.877 31.516 360.141 31.508 360.389 31.492C360.637 31.468 360.841 31.452 361.001 31.444V33.328C360.865 33.32 360.661 33.308 360.389 33.292C360.117 33.276 359.853 33.268 359.597 33.268C359.445 33.268 359.237 33.268 358.973 33.268C358.709 33.268 358.413 33.268 358.085 33.268C357.757 33.268 357.409 33.268 357.041 33.268C356.681 33.268 356.313 33.268 355.937 33.268C355.561 33.268 355.197 33.268 354.845 33.268C354.501 33.268 354.181 33.268 353.885 33.268C353.597 33.268 353.353 33.268 353.153 33.268C352.809 33.268 352.457 33.276 352.097 33.292C351.737 33.3 351.445 33.312 351.221 33.328V31.444ZM370.643 27.784C370.755 27.952 370.875 28.148 371.003 28.372C371.139 28.588 371.271 28.808 371.399 29.032C371.527 29.248 371.639 29.452 371.735 29.644L370.691 30.088C370.571 29.832 370.459 29.604 370.355 29.404C370.251 29.196 370.139 28.996 370.019 28.804C369.907 28.604 369.779 28.404 369.635 28.204L370.643 27.784ZM372.287 27.208C372.415 27.36 372.547 27.544 372.683 27.76C372.819 27.976 372.951 28.192 373.079 28.408C373.207 28.624 373.319 28.82 373.415 28.996L372.395 29.452C372.267 29.204 372.143 28.98 372.023 28.78C371.911 28.58 371.795 28.388 371.675 28.204C371.555 28.02 371.419 27.828 371.267 27.628L372.287 27.208ZM365.423 27.556C365.623 27.66 365.847 27.788 366.095 27.94C366.343 28.092 366.595 28.252 366.851 28.42C367.107 28.58 367.351 28.736 367.583 28.888C367.815 29.032 368.007 29.16 368.159 29.272L367.271 30.592C367.103 30.48 366.903 30.348 366.671 30.196C366.447 30.044 366.207 29.888 365.951 29.728C365.703 29.568 365.455 29.416 365.207 29.272C364.967 29.12 364.751 28.988 364.559 28.876L365.423 27.556ZM363.203 36.076C363.651 35.996 364.107 35.896 364.571 35.776C365.035 35.656 365.495 35.512 365.951 35.344C366.407 35.168 366.851 34.96 367.283 34.72C367.963 34.336 368.595 33.904 369.179 33.424C369.771 32.944 370.303 32.436 370.775 31.9C371.247 31.356 371.639 30.796 371.951 30.22L372.875 31.852C372.323 32.684 371.635 33.472 370.811 34.216C369.995 34.952 369.095 35.604 368.111 36.172C367.703 36.396 367.255 36.612 366.767 36.82C366.279 37.02 365.799 37.192 365.327 37.336C364.863 37.48 364.455 37.584 364.103 37.648L363.203 36.076ZM363.575 30.292C363.775 30.396 364.003 30.524 364.259 30.676C364.515 30.828 364.771 30.984 365.027 31.144C365.283 31.296 365.523 31.448 365.747 31.6C365.979 31.744 366.171 31.872 366.323 31.984L365.447 33.328C365.271 33.208 365.067 33.072 364.835 32.92C364.611 32.768 364.371 32.612 364.115 32.452C363.867 32.292 363.619 32.14 363.371 31.996C363.131 31.844 362.911 31.716 362.711 31.612L363.575 30.292Z" fill="#6B7280"/>
</svg>
