<svg width="24" height="20" viewBox="0 0 24 20" fill="none" xmlns="http://www.w3.org/2000/svg">
<mask id="path-1-inside-1_119_80" fill="white">
<path d="M8.5 0C10.8471 7.57651e-05 12.75 1.90284 12.75 4.25C12.75 5.13469 12.4782 5.95541 12.0156 6.63574C14.9483 7.91214 16.999 10.8348 16.999 14.2373C16.9988 15.7627 15.7627 16.9988 14.2373 16.999H2.7627C1.23713 16.999 0.00018321 15.7628 0 14.2373C0 10.8352 2.05033 7.9124 4.98242 6.63574C4.52021 5.95556 4.25 5.13436 4.25 4.25C4.25 1.9028 6.15288 0 8.5 0Z"/>
</mask>
<path d="M8.5 0C10.8471 7.57651e-05 12.75 1.90284 12.75 4.25C12.75 5.13469 12.4782 5.95541 12.0156 6.63574C14.9483 7.91214 16.999 10.8348 16.999 14.2373C16.9988 15.7627 15.7627 16.9988 14.2373 16.999H2.7627C1.23713 16.999 0.00018321 15.7628 0 14.2373C0 10.8352 2.05033 7.9124 4.98242 6.63574C4.52021 5.95556 4.25 5.13436 4.25 4.25C4.25 1.9028 6.15288 0 8.5 0Z" fill="white"/>
<path d="M8.5 0L8.50005 -1.5H8.5V0ZM12.75 4.25L14.25 4.25V4.25H12.75ZM12.0156 6.63574L10.7752 5.79239L9.75771 7.28894L11.417 8.01112L12.0156 6.63574ZM16.999 14.2373L18.499 14.2375V14.2373H16.999ZM14.2373 16.999V18.499H14.2375L14.2373 16.999ZM0 14.2373H-1.5V14.2375L0 14.2373ZM4.98242 6.63574L5.58124 8.01103L7.23981 7.28887L6.22308 5.79267L4.98242 6.63574ZM4.25 4.25H2.75V4.25L4.25 4.25ZM8.5 0L8.49995 1.5C10.0187 1.50005 11.25 2.73134 11.25 4.25H12.75H14.25C14.25 1.07435 11.6754 -1.4999 8.50005 -1.5L8.5 0ZM12.75 4.25L11.25 4.25C11.25 4.82244 11.0752 5.35114 10.7752 5.79239L12.0156 6.63574L13.2561 7.47909C13.8812 6.55969 14.25 5.44695 14.25 4.25L12.75 4.25ZM12.0156 6.63574L11.417 8.01112C13.8223 9.05797 15.499 11.4532 15.499 14.2373H16.999H18.499C18.499 10.2163 16.0744 6.76632 12.6142 5.26036L12.0156 6.63574ZM16.999 14.2373L15.499 14.2371C15.4989 14.9342 14.9342 15.4989 14.2371 15.499L14.2373 16.999L14.2375 18.499C16.5911 18.4987 18.4987 16.5912 18.499 14.2375L16.999 14.2373ZM14.2373 16.999V15.499H2.7627V16.999V18.499H14.2373V16.999ZM2.7627 16.999V15.499C2.06504 15.499 1.50008 14.9339 1.5 14.2371L0 14.2373L-1.5 14.2375C-1.49972 16.5918 0.409211 18.499 2.7627 18.499V16.999ZM0 14.2373H1.5C1.5 11.4535 3.17652 9.05807 5.58124 8.01103L4.98242 6.63574L4.38361 5.26045C0.924145 6.76674 -1.5 10.2169 -1.5 14.2373H0ZM4.98242 6.63574L6.22308 5.79267C5.92443 5.35318 5.75 4.82417 5.75 4.25L4.25 4.25L2.75 4.25C2.75 5.44454 3.116 6.55795 3.74177 7.47882L4.98242 6.63574ZM4.25 4.25H5.75C5.75 2.73124 6.98128 1.5 8.5 1.5V0V-1.5C5.32447 -1.5 2.75 1.07435 2.75 4.25H4.25Z" fill="#6B7280" mask="url(#path-1-inside-1_119_80)"/>
<mask id="path-3-inside-2_119_80" fill="white">
<path d="M13.9995 0C16.7606 0.00022033 18.9985 2.23872 18.9985 5C18.9985 6.04059 18.6802 7.00635 18.1362 7.80664C21.5863 9.30837 23.9985 12.7472 23.9985 16.75C23.9984 18.5448 22.5434 20 20.7485 20H7.24951C5.45471 20 3.99966 18.5448 3.99951 16.75C3.99951 12.7477 6.4116 9.30969 9.86084 7.80762C9.31684 7.0073 8.99952 6.04065 8.99951 5C8.99951 2.23859 11.2382 0 13.9995 0Z"/>
</mask>
<path d="M13.9995 0C16.7606 0.00022033 18.9985 2.23872 18.9985 5C18.9985 6.04059 18.6802 7.00635 18.1362 7.80664C21.5863 9.30837 23.9985 12.7472 23.9985 16.75C23.9984 18.5448 22.5434 20 20.7485 20H7.24951C5.45471 20 3.99966 18.5448 3.99951 16.75C3.99951 12.7477 6.4116 9.30969 9.86084 7.80762C9.31684 7.0073 8.99952 6.04065 8.99951 5C8.99951 2.23859 11.2382 0 13.9995 0Z" fill="white"/>
<path d="M13.9995 0L13.9996 -1.5H13.9995V0ZM18.9985 5L20.4985 5.00001V5H18.9985ZM18.1362 7.80664L16.8957 6.96344L15.8786 8.45987L17.5376 9.182L18.1362 7.80664ZM23.9985 16.75L25.4985 16.7501V16.75H23.9985ZM7.24951 20L7.24949 21.5H7.24951V20ZM3.99951 16.75H2.49951V16.7501L3.99951 16.75ZM9.86084 7.80762L10.4597 9.18287L12.1184 8.46056L11.1014 6.96438L9.86084 7.80762ZM8.99951 5H7.49951V5.00001L8.99951 5ZM13.9995 0L13.9994 1.5C15.9319 1.50015 17.4985 3.0669 17.4985 5H18.9985H20.4985C20.4985 1.41054 17.5893 -1.49971 13.9996 -1.5L13.9995 0ZM18.9985 5L17.4985 4.99999C17.4985 5.72984 17.2763 6.40343 16.8957 6.96344L18.1362 7.80664L19.3768 8.64984C20.0841 7.60928 20.4985 6.35135 20.4985 5.00001L18.9985 5ZM18.1362 7.80664L17.5376 9.182C20.4601 10.4541 22.4985 13.3655 22.4985 16.75H23.9985H25.4985C25.4985 12.1289 22.7125 8.16264 18.7349 6.43129L18.1362 7.80664ZM23.9985 16.75L22.4985 16.7499C22.4985 17.7165 21.7148 18.5 20.7485 18.5V20V21.5C23.3719 21.5 25.4983 19.3731 25.4985 16.7501L23.9985 16.75ZM20.7485 20V18.5H7.24951V20V21.5H20.7485V20ZM7.24951 20L7.24954 18.5C6.28324 18.5 5.49959 17.7164 5.49951 16.7499L3.99951 16.75L2.49951 16.7501C2.49972 19.3731 4.62618 21.5 7.24949 21.5L7.24951 20ZM3.99951 16.75H5.49951C5.49951 13.3661 7.53772 10.4554 10.4597 9.18287L9.86084 7.80762L9.26194 6.43236C5.28549 8.16403 2.49951 12.1293 2.49951 16.75H3.99951ZM9.86084 7.80762L11.1014 6.96438C10.7215 6.40547 10.4995 5.73121 10.4995 4.99999L8.99951 5L7.49951 5.00001C7.49952 6.3501 7.9122 7.60913 8.6203 8.65086L9.86084 7.80762ZM8.99951 5H10.4995C10.4995 3.06703 12.0666 1.5 13.9995 1.5V0V-1.5C10.4098 -1.5 7.49951 1.41014 7.49951 5H8.99951Z" fill="#6B7280" mask="url(#path-3-inside-2_119_80)"/>
</svg>
