<svg width="20" height="20" viewBox="0 0 20 20" fill="none" xmlns="http://www.w3.org/2000/svg">
<path d="M16.5652 3.49622C18.2557 4.75528 19.1009 5.38481 19.5504 6.22966C20 7.07451 20 8.03339 20 9.95116V11.4425C20 15.4766 20 17.4936 18.5355 18.7468C17.0711 20 14.714 20 10 20C5.28595 20 2.92893 20 1.46447 18.7468C-5.96046e-07 17.4936 -1.7621e-07 15.4766 1.22782e-10 11.4425L6.53124e-08 9.95116C1.49141e-07 8.03339 -3.57628e-07 7.07451 0.449554 6.22966C0.899108 5.38481 1.74432 4.75528 3.43476 3.49622C6.56413 1.16541 8.12882 -8.17919e-08 10 0C11.8712 8.17919e-08 13.4359 1.16541 16.5652 3.49622Z" fill="#21B2AA"/>
<rect x="13.25" y="14.25" width="6.5" height="6.5" rx="3.25" transform="rotate(-180 13.25 14.25)" fill="#21B2AA" stroke="white" stroke-width="1.5"/>
</svg>
