<svg width="20" height="20" viewBox="0 0 20 20" fill="none" xmlns="http://www.w3.org/2000/svg">
<mask id="path-1-inside-1_45_4416" fill="white">
<path d="M10 0C12.7611 0.000257177 14.999 2.23874 14.999 5C14.999 6.04087 14.6809 7.0072 14.1367 7.80762C17.5865 9.30944 19.999 12.7473 19.999 16.75C19.9989 18.5448 18.5439 20 16.749 20H3.25C1.45517 20 0.000144949 18.5448 0 16.75C0 12.7477 2.41206 9.30968 5.86133 7.80762C5.31731 7.0073 5 6.04067 5 5C5 2.23859 7.23868 0 10 0Z"/>
</mask>
<path d="M10 0L10.0001 -1.5H10V0ZM14.999 5L16.499 5.00001V5H14.999ZM14.1367 7.80762L12.8963 6.96423L11.8788 8.46066L13.538 9.18294L14.1367 7.80762ZM19.999 16.75L21.499 16.7501V16.75H19.999ZM0 16.75H-1.5V16.7501L0 16.75ZM5.86133 7.80762L6.46022 9.18287L8.1189 8.46056L7.10187 6.96437L5.86133 7.80762ZM5 5H3.5V5.00001L5 5ZM10 0L9.99986 1.5C11.9324 1.50018 13.499 3.06695 13.499 5H14.999H16.499C16.499 1.41054 13.5898 -1.49967 10.0001 -1.5L10 0ZM14.999 5L13.499 4.99999C13.499 5.73057 13.2768 6.40458 12.8963 6.96423L14.1367 7.80762L15.3772 8.651C16.0851 7.60983 16.499 6.35117 16.499 5.00001L14.999 5ZM14.1367 7.80762L13.538 9.18294C16.4605 10.4552 18.499 13.3658 18.499 16.75H19.999H21.499C21.499 12.1288 18.7125 8.16365 14.7354 6.43229L14.1367 7.80762ZM19.999 16.75L18.499 16.7499C18.4989 17.7165 17.7153 18.5 16.749 18.5V20V21.5C19.3724 21.5 21.4988 19.3731 21.499 16.7501L19.999 16.75ZM16.749 20V18.5H3.25V20V21.5H16.749V20ZM3.25 20V18.5C2.28372 18.5 1.50008 17.7165 1.5 16.7499L0 16.75L-1.5 16.7501C-1.49979 19.3731 0.626622 21.5 3.25 21.5V20ZM0 16.75H1.5C1.5 13.3661 3.53818 10.4553 6.46022 9.18287L5.86133 7.80762L5.26244 6.43236C1.28594 8.16402 -1.5 12.1293 -1.5 16.75H0ZM5.86133 7.80762L7.10187 6.96437C6.72196 6.40547 6.5 5.73123 6.5 4.99999L5 5L3.5 5.00001C3.5 6.35011 3.91267 7.60912 4.62079 8.65086L5.86133 7.80762ZM5 5H6.5C6.5 3.06703 8.06709 1.5 10 1.5V0V-1.5C6.41027 -1.5 3.5 1.41014 3.5 5H5Z" fill="#6B7280" mask="url(#path-1-inside-1_45_4416)"/>
</svg>
