<svg width="20" height="20" viewBox="0 0 20 20" fill="none" xmlns="http://www.w3.org/2000/svg">
<mask id="path-1-inside-1_119_190" fill="white">
<path d="M10 0C15.5227 5.56632e-05 20 4.47724 20 10C20 11.8758 19.4815 13.6298 18.583 15.1299L19.708 18.0615C20.0046 18.8344 19.2875 19.6129 18.4932 19.3799L15.3369 18.4541C13.7922 19.4313 11.963 20 10 20C4.47724 20 5.56649e-05 15.5227 0 10C0 4.47721 4.47721 0 10 0Z"/>
</mask>
<path d="M10 0L10 -1.5H10V0ZM20 10L21.5 10V10H20ZM18.583 15.1299L17.2962 14.3591L16.921 14.9855L17.1826 15.6673L18.583 15.1299ZM19.708 18.0615L18.3076 18.5989L18.3076 18.599L19.708 18.0615ZM18.4932 19.3799L18.071 20.8192L18.071 20.8193L18.4932 19.3799ZM15.3369 18.4541L15.7591 17.0147L15.1082 16.8238L14.535 17.1865L15.3369 18.4541ZM10 20V21.5H10L10 20ZM0 10H-1.5V10L0 10ZM10 0L9.99998 1.5C14.6943 1.50005 18.5 5.30569 18.5 10H20H21.5C21.5 3.6488 16.3512 -1.49994 10 -1.5L10 0ZM20 10L18.5 9.99998C18.5 11.5955 18.0597 13.0843 17.2962 14.3591L18.583 15.1299L19.8698 15.9007C20.9033 14.1753 21.5 12.156 21.5 10L20 10ZM18.583 15.1299L17.1826 15.6673L18.3076 18.5989L19.708 18.0615L21.1084 17.5241L19.9834 14.5925L18.583 15.1299ZM19.708 18.0615L18.3076 18.599C18.1598 18.2139 18.5167 17.8236 18.9153 17.9405L18.4932 19.3799L18.071 20.8193C20.0584 21.4021 21.8494 19.4549 21.1084 17.5241L19.708 18.0615ZM18.4932 19.3799L18.9154 17.9405L15.7591 17.0147L15.3369 18.4541L14.9147 19.8935L18.071 20.8192L18.4932 19.3799ZM15.3369 18.4541L14.535 17.1865C13.2215 18.0174 11.669 18.5 9.99998 18.5L10 20L10 21.5C12.2571 21.5 14.3629 20.8452 16.1388 19.7217L15.3369 18.4541ZM10 20V18.5C5.30569 18.5 1.50005 14.6943 1.5 9.99998L0 10L-1.5 10C-1.49994 16.3512 3.6488 21.5 10 21.5V20ZM0 10H1.5C1.5 5.30564 5.30564 1.5 10 1.5V0V-1.5C3.64878 -1.5 -1.5 3.64878 -1.5 10H0Z" fill="#6B7280" mask="url(#path-1-inside-1_119_190)"/>
</svg>
